<?xml version="1.0" encoding="UTF-8" standalone="no"?>
<!-- Created with Inkscape (http://www.inkscape.org/) -->

<svg
   width="60.599998mm"
   height="128.5mm"
   viewBox="0 0 60.599998 128.5"
   version="1.1"
   id="svg1"
   inkscape:version="1.4.3 (0d15f75042, 2025-12-25)"
   sodipodi:docname="copper.svg"
   inkscape:export-filename="copper.png"
   inkscape:export-xdpi="300"
   inkscape:export-ydpi="300"
   xmlns:inkscape="http://www.inkscape.org/namespaces/inkscape"
   xmlns:sodipodi="http://sodipodi.sourceforge.net/DTD/sodipodi-0.dtd"
   xmlns:xlink="http://www.w3.org/1999/xlink"
   xmlns="http://www.w3.org/2000/svg"
   xmlns:svg="http://www.w3.org/2000/svg">
  <sodipodi:namedview
     id="namedview1"
     pagecolor="#ffffff"
     bordercolor="#666666"
     borderopacity="1.0"
     inkscape:showpageshadow="2"
     inkscape:pageopacity="0.0"
     inkscape:pagecheckerboard="0"
     inkscape:deskcolor="#d1d1d1"
     inkscape:document-units="mm"
     inkscape:zoom="5.8457335"
     inkscape:cx="133.85831"
     inkscape:cy="274.04602"
     inkscape:window-width="1720"
     inkscape:window-height="1371"
     inkscape:window-x="20"
     inkscape:window-y="20"
     inkscape:window-maximized="0"
     inkscape:current-layer="layer1" />
  <defs
     id="defs1">
    <pattern
       inkscape:collect="always"
       xlink:href="#ap109"
       preserveAspectRatio="xMidYMid"
       id="pattern33"
       patternTransform="matrix(0.03,0,0,0.03,1332.8295,854.30106)"
       x="0"
       y="0" />
    <pattern
       patternUnits="userSpaceOnUse"
       preserveAspectRatio="xMidYMid"
       width="161.8868"
       height="280.43354"
       patternTransform="translate(1332.8295,854.30106) scale(0.2)"
       style="fill:#000000"
       id="ap109"
       inkscape:collect="always"
       inkscape:isstock="true"
       inkscape:label="ap109">
      <path
         id="path279"
         style="color:#000000;fill-opacity:1;stroke-width:3.77953"
         d="M 161.88673,0 0,0.00192756 V 4.5370961 H 48.152353 L 39.906255,18.83588 H 0 v 9.064517 H 34.679698 L 26.435565,42.199219 H 0 v 9.072264 L 37.826192,116.81639 29.484397,131.21091 0,80.564447 V 98.597631 L 21.58594,135.6836 H 4.6660157 L 0,127.59764 v 25.23829 l 4.6660157,-8.08592 H 21.58594 L 0,181.83594 v 18.03319 l 29.484397,-50.6465 8.341795,14.39452 L 0,229.16209 v 9.07227 h 26.435565 l 8.244133,14.29882 H 0 v 9.06448 h 39.906255 l 8.246098,14.29882 H 0 v 4.53706 h 161.88673 v -4.53706 h -43.48827 l 8.25974,-14.29882 h 35.22853 v -9.06448 h -29.99414 l 8.25978,-14.29882 h 21.73436 v -9.07616 l -0.002,0.004 h -16.49805 l 16.49998,-28.57032 v -18.13281 l -24.33982,42.14846 -8.25195,-14.29104 32.59177,-56.48436 v -27.23044 l -32.59177,-56.484393 8.25195,-14.291036 24.33982,42.14846 V 79.841499 l -16.4999,-28.570318 h 16.49805 l 0.002,0.0038 V 42.198823 H 140.15238 L 131.8926,27.900001 h 29.99414 V 18.835465 H 126.6582 L 118.39846,4.5366803 h 43.48827 z M 58.61915,4.5370961 H 75.339855 L 42.033222,61.142551 33.986343,47.263672 46.45508,25.634759 Z m 27.24805,0 h 16.81448 L 56.000013,85.347666 47.24417,70.154306 Z m 24.67774,4.5410267 8.24414,14.2753512 -38.90234,65.587918 H 64.408214 Z m 13.44923,23.2812472 8.3125,14.39452 -24.36915,42.187502 H 90.427767 Z M 10.47462,51.271483 h 15.347679 l 12.232403,21.105449 12.703144,22.042999 -7.691415,13.324199 z m 113.57813,27.917972 32.5996,56.494145 H 140.1758 L 128.0098,114.58008 115.80079,93.474595 Z M 59.166047,98.013657 h 48.771473 l 8.27539,14.298823 H 50.906268 Z M 45.658205,121.38474 H 121.4629 l 8.24414,14.29886 H 37.37503 Z m -8.283175,23.36527 h 92.33201 l -8.24414,14.29882 H 45.658205 Z m 102.80077,0 h 16.47655 l -32.5996,56.49411 -8.25196,-14.28514 12.20901,-21.10549 z M 50.906268,168.1211 h 65.306642 l -8.27539,14.29882 H 59.166047 Z m -7.839837,4.56835 7.691415,13.32423 -12.703144,22.04296 -12.232403,21.10545 H 10.47462 Z m 21.341783,18.80273 H 79.88674 l 38.90234,65.58785 -8.24414,14.27542 z m 26.019553,0 h 17.509753 l 24.36915,42.18751 -8.3125,14.39448 z m -34.427754,3.59377 46.681667,80.81053 H 85.8672 L 47.24417,210.27931 Z m -13.966791,24.20504 33.306633,56.60549 H 58.61915 L 46.45508,254.79882 33.986343,233.1699 Z"
         sodipodi:nodetypes="ccccccccccccccccccccccccccccccccccccccccccccccccccccccccccccccccccccccccccccccccccccccccccccccccccccccccccccccccccccccccccccccccccccccccccccccccccccccccccc" />
    </pattern>
    <clipPath
       clipPathUnits="userSpaceOnUse"
       id="clipPath17">
      <rect
         style="fill:#000000;stroke:#000000;stroke-width:0;stroke-linejoin:bevel;paint-order:stroke markers fill;stop-color:#000000"
         id="rect5-4"
         width="20"
         height="200"
         x="530"
         y="595" />
    </clipPath>
    <clipPath
       clipPathUnits="userSpaceOnUse"
       id="clipPath5">
      <path
         id="path5"
         style="stroke-width:0.1;stroke-linecap:square;paint-order:markers fill stroke;stop-color:#000000"
         d="m 438.25066,553.76374 859.87054,0 v 201.39554 l -859.87054,0 z"
         sodipodi:nodetypes="ccccc" />
    </clipPath>
  </defs>
  <g
     inkscape:label="Layer 1"
     inkscape:groupmode="layer"
     id="layer1">
    <rect
       style="fill:url(#pattern33);stroke:none;stroke-width:1"
       id="rect1"
       width="60.599998"
       height="128.5"
       x="0"
       y="0"
       inkscape:label="rect1" />
    <g
       style="fill:#000000;fill-opacity:1;stroke:#000000;stroke-linecap:round;stroke-linejoin:round;stroke-opacity:1"
       id="g1"
       transform="translate(-79.675,-30.975)">
      <path
         style="fill:none;stroke:#000000;stroke-width:0.05;stroke-linecap:round;stroke-linejoin:round;stroke-opacity:1"
         d="m 79.7,31 h 60.6 V 159.5 H 79.7 Z"
         id="path1" />
    </g>
    <g
       style="fill:#000000;fill-opacity:1;stroke:none"
       id="g2"
       transform="translate(-79.675,-30.975)">
      <circle
         cx="88"
         cy="62"
         r="0.95249999"
         id="circle1" />
    </g>
    <g
       style="fill:#000000;fill-opacity:1;stroke:none"
       id="g3"
       transform="translate(-79.675,-30.975)">
      <circle
         cx="117"
         cy="72"
         r="0.95249999"
         id="circle2" />
    </g>
    <g
       style="fill:#000000;fill-opacity:1;stroke:none"
       id="g4"
       transform="translate(-79.675,-30.975)">
      <circle
         cx="100"
         cy="126"
         r="0.95249999"
         id="circle3" />
    </g>
    <g
       style="fill:#000000;fill-opacity:1;stroke:none"
       id="g5"
       transform="translate(-79.675,-30.975)">
      <circle
         cx="115"
         cy="142"
         r="0.95249999"
         id="circle4" />
    </g>
    <g
       style="fill:#000000;fill-opacity:1;stroke:none"
       id="g6"
       transform="translate(-79.675,-30.975)">
      <circle
         cx="120"
         cy="126"
         r="0.95249999"
         id="circle5" />
    </g>
    <g
       style="fill:#000000;fill-opacity:1;stroke:none"
       id="g7"
       transform="translate(-79.675,-30.975)">
      <circle
         cx="130"
         cy="126"
         r="0.95249999"
         id="circle6" />
    </g>
    <g
       style="fill:#000000;fill-opacity:1;stroke:none"
       id="g8"
       transform="translate(-79.675,-30.975)">
      <circle
         cx="135"
         cy="142"
         r="0.95249999"
         id="circle7" />
    </g>
    <g
       style="fill:#000000;fill-opacity:1;stroke:none"
       id="g9"
       transform="translate(-79.675,-30.975)">
      <circle
         cx="125"
         cy="142"
         r="0.95249999"
         id="circle8" />
    </g>
    <g
       style="fill:#000000;fill-opacity:1;stroke:none"
       id="g10"
       transform="translate(-79.675,-30.975)">
      <circle
         cx="85"
         cy="142"
         r="0.95249999"
         id="circle9" />
    </g>
    <g
       style="fill:#000000;fill-opacity:1;stroke:none"
       id="g11"
       transform="translate(-79.675,-30.975)">
      <circle
         cx="101"
         cy="46"
         r="0.95249999"
         id="circle10" />
    </g>
    <g
       style="fill:#000000;fill-opacity:1;stroke:none"
       id="g12"
       transform="translate(-79.675,-30.975)">
      <circle
         cx="119"
         cy="46"
         r="0.95249999"
         id="circle11" />
    </g>
    <g
       style="fill:#000000;fill-opacity:1;stroke:none"
       id="g13"
       transform="translate(-79.675,-30.975)">
      <circle
         cx="105"
         cy="142"
         r="0.95249999"
         id="circle12" />
    </g>
    <g
       style="fill:#000000;fill-opacity:1;stroke:none"
       id="g14"
       transform="translate(-79.675,-30.975)">
      <circle
         cx="132"
         cy="62"
         r="0.95249999"
         id="circle13" />
    </g>
    <g
       style="fill:#000000;fill-opacity:1;stroke:none"
       id="g15"
       transform="translate(-79.675,-30.975)">
      <circle
         cx="87"
         cy="102"
         r="0.95249999"
         id="circle14" />
    </g>
    <g
       style="fill:#000000;fill-opacity:1;stroke:none"
       id="g16"
       transform="translate(-79.675,-30.975)">
      <circle
         cx="90"
         cy="126"
         r="0.95249999"
         id="circle15" />
    </g>
    <g
       style="fill:#000000;fill-opacity:1;stroke:none"
       id="g17"
       transform="translate(-79.675,-30.975)">
      <circle
         cx="103"
         cy="72"
         r="0.95249999"
         id="circle16" />
    </g>
    <g
       style="fill:#000000;fill-opacity:1;stroke:none"
       id="g18"
       transform="translate(-79.675,-30.975)">
      <circle
         cx="95"
         cy="142"
         r="0.95249999"
         id="circle17" />
    </g>
    <g
       style="fill:#000000;fill-opacity:1;stroke:none"
       id="g19"
       transform="translate(-79.675,-30.975)">
      <circle
         cx="87"
         cy="87"
         r="0.95249999"
         id="circle18" />
    </g>
    <g
       style="fill:none;stroke:#000000;stroke-width:3.2;stroke-linecap:round;stroke-linejoin:round;stroke-opacity:1"
       id="g22"
       transform="translate(-79.675,-30.975)">
      <path
         d="m 85.6,34 h 3.2"
         id="path19" />
      <path
         d="m 85.6,156.5 h 3.2"
         id="path20" />
      <path
         d="m 131.2,34 h 3.2"
         id="path21" />
      <path
         d="m 131.2,156.5 h 3.2"
         id="path22" />
    </g>
    <g
       style="fill:#000000;fill-opacity:1;stroke:#000000;stroke-linecap:round;stroke-linejoin:round;stroke-opacity:1"
       id="g3-6"
       transform="translate(-79.669647,-30.966347)">
      <path
         style="fill:#000000;fill-opacity:1;fill-rule:evenodd;stroke:#000000;stroke-width:0.1;stroke-linecap:round;stroke-linejoin:round;stroke-opacity:1"
         d="m 132.5,130.5 h 5 v 5 h -5 z"
         id="path1-2" />
      <path
         style="fill:#000000;fill-opacity:1;fill-rule:evenodd;stroke:#000000;stroke-width:0.1;stroke-linecap:round;stroke-linejoin:round;stroke-opacity:1"
         d="m 102.5,130.5 h 5 v 5 h -5 z"
         id="path2" />
      <path
         style="fill:#000000;fill-opacity:1;fill-rule:evenodd;stroke:#000000;stroke-width:0.1;stroke-linecap:round;stroke-linejoin:round;stroke-opacity:1"
         d="m 107.5,104 h 5 v 5 h -5 z"
         id="path3" />
    </g>
    <g
       style="fill:#000000;fill-opacity:1;stroke:none"
       id="g4-9"
       transform="translate(-79.669647,-30.966347)">
      <circle
         cx="88"
         cy="62"
         r="0.95249999"
         id="circle3-1" />
    </g>
    <g
       style="fill:#000000;fill-opacity:1;stroke:none"
       id="g5-2"
       transform="translate(-79.669647,-30.966347)">
      <circle
         cx="117"
         cy="72"
         r="0.95249999"
         id="circle4-7" />
    </g>
    <g
       style="fill:#000000;fill-opacity:1;stroke:none"
       id="g6-0"
       transform="translate(-79.669647,-30.966347)">
      <circle
         cx="100"
         cy="126"
         r="0.95249999"
         id="circle5-9" />
    </g>
    <g
       style="fill:#000000;fill-opacity:1;stroke:none"
       id="g7-3"
       transform="translate(-79.669647,-30.966347)">
      <circle
         cx="115"
         cy="142"
         r="0.95249999"
         id="circle6-6" />
    </g>
    <g
       style="fill:#000000;fill-opacity:1;stroke:none"
       id="g8-0"
       transform="translate(-79.669647,-30.966347)">
      <circle
         cx="120"
         cy="126"
         r="0.95249999"
         id="circle7-6" />
    </g>
    <g
       style="fill:#000000;fill-opacity:1;stroke:none"
       id="g9-2"
       transform="translate(-79.669647,-30.966347)">
      <circle
         cx="130"
         cy="126"
         r="0.95249999"
         id="circle8-6" />
    </g>
    <g
       style="fill:#000000;fill-opacity:1;stroke:none"
       id="g10-1"
       transform="translate(-79.669647,-30.966347)">
      <circle
         cx="135"
         cy="142"
         r="0.95249999"
         id="circle9-8" />
    </g>
    <g
       style="fill:#000000;fill-opacity:1;stroke:none"
       id="g11-7"
       transform="translate(-79.669647,-30.966347)">
      <circle
         cx="125"
         cy="142"
         r="0.95249999"
         id="circle10-9" />
    </g>
    <g
       style="fill:#000000;fill-opacity:1;stroke:none"
       id="g12-2"
       transform="translate(-79.669647,-30.966347)">
      <circle
         cx="85"
         cy="142"
         r="0.95249999"
         id="circle11-0" />
    </g>
    <g
       style="fill:#000000;fill-opacity:1;stroke:none"
       id="g13-2"
       transform="translate(-79.669647,-30.966347)">
      <circle
         cx="101"
         cy="46"
         r="0.95249999"
         id="circle12-3" />
    </g>
    <g
       style="fill:#000000;fill-opacity:1;stroke:none"
       id="g14-7"
       transform="translate(-79.669647,-30.966347)">
      <circle
         cx="119"
         cy="46"
         r="0.95249999"
         id="circle13-5" />
    </g>
    <g
       style="fill:#000000;fill-opacity:1;stroke:none"
       id="g15-9"
       transform="translate(-79.669647,-30.966347)">
      <circle
         cx="105"
         cy="142"
         r="0.95249999"
         id="circle14-2" />
    </g>
    <g
       style="fill:#000000;fill-opacity:1;stroke:none"
       id="g16-2"
       transform="translate(-79.669647,-30.966347)">
      <circle
         cx="132"
         cy="62"
         r="0.95249999"
         id="circle15-8" />
    </g>
    <g
       style="fill:#000000;fill-opacity:1;stroke:none"
       id="g17-9"
       transform="translate(-79.669647,-30.966347)">
      <circle
         cx="87"
         cy="102"
         r="0.95249999"
         id="circle16-7" />
    </g>
    <g
       style="fill:#000000;fill-opacity:1;stroke:none"
       id="g18-3"
       transform="translate(-79.669647,-30.966347)">
      <circle
         cx="90"
         cy="126"
         r="0.95249999"
         id="circle17-6" />
    </g>
    <g
       style="fill:#000000;fill-opacity:1;stroke:none"
       id="g19-1"
       transform="translate(-79.669647,-30.966347)">
      <circle
         cx="103"
         cy="72"
         r="0.95249999"
         id="circle18-2" />
    </g>
    <g
       style="fill:#000000;fill-opacity:1;stroke:none"
       id="g20"
       transform="translate(-79.669647,-30.966347)">
      <circle
         cx="95"
         cy="142"
         r="0.95249999"
         id="circle19" />
    </g>
    <g
       style="fill:#000000;fill-opacity:1;stroke:none"
       id="g21"
       transform="translate(-79.669647,-30.966347)">
      <circle
         cx="87"
         cy="87"
         r="0.95249999"
         id="circle20" />
    </g>
    <g
       style="fill:none;stroke:#000000;stroke-width:4.8;stroke-linecap:round;stroke-linejoin:round;stroke-opacity:1"
       id="g24"
       transform="translate(-79.669647,-30.966347)">
      <path
         d="m 85.6,34 h 3.2"
         id="path21-9" />
      <path
         d="m 85.6,156.5 h 3.2"
         id="path22-3" />
      <path
         d="m 131.2,34 h 3.2"
         id="path23" />
      <path
         d="m 131.2,156.5 h 3.2"
         id="path24" />
    </g>
    <g
       style="fill:#ffffff;fill-opacity:1;stroke:none"
       id="g25"
       transform="translate(-79.669647,-30.966347)">
      <circle
         cx="88"
         cy="62"
         r="0.95249999"
         id="circle24" />
    </g>
    <g
       style="fill:#ffffff;fill-opacity:1;stroke:none"
       id="g26"
       transform="translate(-79.669647,-30.966347)">
      <circle
         cx="117"
         cy="72"
         r="0.95249999"
         id="circle25" />
    </g>
    <g
       style="fill:#ffffff;fill-opacity:1;stroke:none"
       id="g27"
       transform="translate(-79.669647,-30.966347)">
      <circle
         cx="100"
         cy="126"
         r="0.95249999"
         id="circle26" />
    </g>
    <g
       style="fill:#ffffff;fill-opacity:1;stroke:none"
       id="g28"
       transform="translate(-79.669647,-30.966347)">
      <circle
         cx="115"
         cy="142"
         r="0.95249999"
         id="circle27" />
    </g>
    <g
       style="fill:#ffffff;fill-opacity:1;stroke:none"
       id="g29"
       transform="translate(-79.669647,-30.966347)">
      <circle
         cx="120"
         cy="126"
         r="0.95249999"
         id="circle28" />
    </g>
    <g
       style="fill:#ffffff;fill-opacity:1;stroke:none"
       id="g30"
       transform="translate(-79.669647,-30.966347)">
      <circle
         cx="130"
         cy="126"
         r="0.95249999"
         id="circle29" />
    </g>
    <g
       style="fill:#ffffff;fill-opacity:1;stroke:none"
       id="g31"
       transform="translate(-79.669647,-30.966347)">
      <circle
         cx="135"
         cy="142"
         r="0.95249999"
         id="circle30" />
    </g>
    <g
       style="fill:#ffffff;fill-opacity:1;stroke:none"
       id="g32"
       transform="translate(-79.669647,-30.966347)">
      <circle
         cx="125"
         cy="142"
         r="0.95249999"
         id="circle31" />
    </g>
    <g
       style="fill:#ffffff;fill-opacity:1;stroke:none"
       id="g33"
       transform="translate(-79.669647,-30.966347)">
      <circle
         cx="85"
         cy="142"
         r="0.95249999"
         id="circle32" />
    </g>
    <g
       style="fill:#ffffff;fill-opacity:1;stroke:none"
       id="g34"
       transform="translate(-79.669647,-30.966347)">
      <circle
         cx="101"
         cy="46"
         r="0.95249999"
         id="circle33" />
    </g>
    <g
       style="fill:#ffffff;fill-opacity:1;stroke:none"
       id="g35"
       transform="translate(-79.669647,-30.966347)">
      <circle
         cx="119"
         cy="46"
         r="0.95249999"
         id="circle34" />
    </g>
    <g
       style="fill:#ffffff;fill-opacity:1;stroke:none"
       id="g36"
       transform="translate(-79.669647,-30.966347)">
      <circle
         cx="105"
         cy="142"
         r="0.95249999"
         id="circle35" />
    </g>
    <g
       style="fill:#ffffff;fill-opacity:1;stroke:none"
       id="g37"
       transform="translate(-79.669647,-30.966347)">
      <circle
         cx="132"
         cy="62"
         r="0.95249999"
         id="circle36" />
    </g>
    <g
       style="fill:#ffffff;fill-opacity:1;stroke:none"
       id="g38"
       transform="translate(-79.669647,-30.966347)">
      <circle
         cx="87"
         cy="102"
         r="0.95249999"
         id="circle37" />
    </g>
    <g
       style="fill:#ffffff;fill-opacity:1;stroke:none"
       id="g39"
       transform="translate(-79.669647,-30.966347)">
      <circle
         cx="90"
         cy="126"
         r="0.95249999"
         id="circle38" />
    </g>
    <g
       style="fill:#ffffff;fill-opacity:1;stroke:none"
       id="g40"
       transform="translate(-79.669647,-30.966347)">
      <circle
         cx="103"
         cy="72"
         r="0.95249999"
         id="circle39" />
    </g>
    <g
       style="fill:#ffffff;fill-opacity:1;stroke:none"
       id="g41"
       transform="translate(-79.669647,-30.966347)">
      <circle
         cx="95"
         cy="142"
         r="0.95249999"
         id="circle40" />
    </g>
    <g
       style="fill:#ffffff;fill-opacity:1;stroke:none"
       id="g42"
       transform="translate(-79.669647,-30.966347)">
      <circle
         cx="87"
         cy="87"
         r="0.95249999"
         id="circle41" />
    </g>
    <g
       style="fill:none;stroke:#ffffff;stroke-width:3.2;stroke-linecap:round;stroke-linejoin:round;stroke-opacity:1"
       id="g45"
       transform="translate(-79.669647,-30.966347)">
      <path
         d="m 85.6,34 h 3.2"
         id="path42" />
      <path
         d="m 85.6,156.5 h 3.2"
         id="path43" />
      <path
         d="m 131.2,34 h 3.2"
         id="path44" />
      <path
         d="m 131.2,156.5 h 3.2"
         id="path45" />
    </g>
    <rect
       style="fill:#ffffff;fill-opacity:1;stroke:none;stroke-width:0.725561"
       id="rect33"
       width="5.3840518"
       height="5.3360453"
       x="27.643993"
       y="72.85598" />
    <rect
       style="fill:#ffffff;fill-opacity:1;stroke:none;stroke-width:0.725561"
       id="rect34"
       width="5.3840518"
       height="5.3360453"
       x="27.643993"
       y="72.85598" />
    <rect
       style="fill:#ffffff;fill-opacity:1;stroke:none;stroke-width:0.725561"
       id="rect35"
       width="5.3840518"
       height="5.3360453"
       x="27.643993"
       y="72.85598" />
    <rect
       style="fill:#ffffff;fill-opacity:1;stroke:none;stroke-width:0.725561"
       id="rect35-8"
       width="5.3840518"
       height="5.3360453"
       x="22.67543"
       y="99.382507" />
    <rect
       style="fill:#ffffff;fill-opacity:1;stroke:none;stroke-width:0.725561"
       id="rect35-6"
       width="5.3840518"
       height="5.3360453"
       x="52.655937"
       y="99.383591" />
    <text
       xml:space="preserve"
       style="font-style:normal;font-variant:normal;font-weight:600;font-stretch:normal;font-size:4.23333px;line-height:1.25;font-family:'URW Bookman';-inkscape-font-specification:'URW Bookman Semi-Bold';text-align:center;letter-spacing:0px;word-spacing:0px;text-anchor:middle;stroke-width:0.264583"
       x="25.415972"
       y="103.47543"
       id="text35"><tspan
         sodipodi:role="line"
         id="tspan35"
         style="font-style:normal;font-variant:normal;font-weight:600;font-stretch:normal;font-size:4.23333px;font-family:'URW Bookman';-inkscape-font-specification:'URW Bookman Semi-Bold';stroke-width:0.264583"
         x="25.415972"
         y="103.47543">1</tspan></text>
    <text
       xml:space="preserve"
       style="font-style:normal;font-variant:normal;font-weight:600;font-stretch:normal;font-size:4.23333px;line-height:1.25;font-family:'URW Bookman';-inkscape-font-specification:'URW Bookman Semi-Bold';text-align:center;letter-spacing:0px;word-spacing:0px;text-anchor:middle;stroke-width:0.264583"
       x="55.404499"
       y="103.50786"
       id="text35-7"><tspan
         sodipodi:role="line"
         id="tspan35-8"
         style="font-style:normal;font-variant:normal;font-weight:600;font-stretch:normal;font-size:4.23333px;font-family:'URW Bookman';-inkscape-font-specification:'URW Bookman Semi-Bold';stroke-width:0.264583"
         x="55.404499"
         y="103.50786">2</tspan></text>
    <text
       xml:space="preserve"
       style="font-size:4.9389px;line-height:1.25;font-family:D050000L;-inkscape-font-specification:D050000L;text-align:center;letter-spacing:0px;word-spacing:0px;text-anchor:middle;stroke-width:0.264583"
       x="30.299448"
       y="77.206902"
       id="text36"><tspan
         sodipodi:role="line"
         id="tspan36"
         style="stroke-width:0.264583"
         x="30.299448"
         y="77.206902">j</tspan></text>
  </g>
</svg>
