M48
; DRILL file {KiCad 9.0.7-1.fc42} date 2026-02-18T17:36:39+0100
; FORMAT={-:-/ absolute / metric / decimal}
; #@! TF.CreationDate,2026-02-18T17:36:39+01:00
; #@! TF.GenerationSoftware,Kicad,Pcbnew,9.0.7-1.fc42
; #@! TF.FileFunction,Plated,1,2,PTH
FMAT,2
METRIC
; #@! TA.AperFunction,Plated,PTH,ViaDrill
T1C0.300
; #@! TA.AperFunction,Plated,PTH,ComponentDrill
T2C1.000
; #@! TA.AperFunction,Plated,PTH,ComponentDrill
T3C1.400
; #@! TA.AperFunction,Plated,PTH,ComponentDrill
T4C3.200
%
G90
G05
T1
X186.0Y-81.0
T2
X133.46Y-69.22
X133.46Y-71.76
X133.46Y-74.3
X133.46Y-76.84
X133.46Y-79.38
X133.46Y-81.92
X133.46Y-84.46
X133.46Y-87.0
X136.0Y-69.22
X136.0Y-71.76
X136.0Y-74.3
X136.0Y-76.84
X136.0Y-79.38
X136.0Y-81.92
X136.0Y-84.46
X136.0Y-87.0
X149.46Y-69.22
X149.46Y-71.76
X149.46Y-74.3
X149.46Y-76.84
X149.46Y-79.38
X149.46Y-81.92
X149.46Y-84.46
X149.46Y-87.0
X152.0Y-69.22
X152.0Y-71.76
X152.0Y-74.3
X152.0Y-76.84
X152.0Y-79.38
X152.0Y-81.92
X152.0Y-84.46
X152.0Y-87.0
X165.46Y-69.22
X165.46Y-71.76
X165.46Y-74.3
X165.46Y-76.84
X165.46Y-79.38
X165.46Y-81.92
X165.46Y-84.46
X165.46Y-87.0
X168.0Y-69.22
X168.0Y-71.76
X168.0Y-74.3
X168.0Y-76.84
X168.0Y-79.38
X168.0Y-81.92
X168.0Y-84.46
X168.0Y-87.0
X181.46Y-69.22
X181.46Y-71.76
X181.46Y-74.3
X181.46Y-76.84
X181.46Y-79.38
X181.46Y-81.92
X181.46Y-84.46
X181.46Y-87.0
X184.0Y-69.22
X184.0Y-71.76
X184.0Y-74.3
X184.0Y-76.84
X184.0Y-79.38
X184.0Y-81.92
X184.0Y-84.46
X184.0Y-87.0
T3
X104.0Y-62.7
X104.0Y-72.9
X104.0Y-83.1
X104.0Y-93.3
X119.5Y-62.7
X119.5Y-72.9
X119.5Y-83.1
X119.5Y-93.3
T4
X127.0Y-60.0
X127.0Y-97.0
X192.0Y-60.0
X192.0Y-97.0
M30
