%TF.GenerationSoftware,KiCad,Pcbnew,9.0.7-1.fc42*%
%TF.CreationDate,2026-02-18T17:36:39+01:00*%
%TF.ProjectId,bananabus,62616e61-6e61-4627-9573-2e6b69636164,rev?*%
%TF.SameCoordinates,Original*%
%TF.FileFunction,Drillmap*%
%TF.FilePolarity,Positive*%
%FSLAX45Y45*%
G04 Gerber Fmt 4.5, Leading zero omitted, Abs format (unit mm)*
G04 Created by KiCad (PCBNEW 9.0.7-1.fc42) date 2026-02-18 17:36:39*
%MOMM*%
%LPD*%
G01*
G04 APERTURE LIST*
%ADD10C,0.050000*%
%ADD11C,0.200000*%
G04 APERTURE END LIST*
D10*
X10100000Y-5550000D02*
X19600000Y-5550000D01*
X19600000Y-10150000D01*
X10100000Y-10150000D01*
X10100000Y-5550000D01*
D11*
X10358277Y-10463984D02*
X10358277Y-10263984D01*
X10358277Y-10263984D02*
X10405896Y-10263984D01*
X10405896Y-10263984D02*
X10434467Y-10273508D01*
X10434467Y-10273508D02*
X10453515Y-10292555D01*
X10453515Y-10292555D02*
X10463039Y-10311603D01*
X10463039Y-10311603D02*
X10472563Y-10349698D01*
X10472563Y-10349698D02*
X10472563Y-10378270D01*
X10472563Y-10378270D02*
X10463039Y-10416365D01*
X10463039Y-10416365D02*
X10453515Y-10435412D01*
X10453515Y-10435412D02*
X10434467Y-10454460D01*
X10434467Y-10454460D02*
X10405896Y-10463984D01*
X10405896Y-10463984D02*
X10358277Y-10463984D01*
X10558277Y-10463984D02*
X10558277Y-10330650D01*
X10558277Y-10368746D02*
X10567801Y-10349698D01*
X10567801Y-10349698D02*
X10577324Y-10340174D01*
X10577324Y-10340174D02*
X10596372Y-10330650D01*
X10596372Y-10330650D02*
X10615420Y-10330650D01*
X10682086Y-10463984D02*
X10682086Y-10330650D01*
X10682086Y-10263984D02*
X10672563Y-10273508D01*
X10672563Y-10273508D02*
X10682086Y-10283031D01*
X10682086Y-10283031D02*
X10691610Y-10273508D01*
X10691610Y-10273508D02*
X10682086Y-10263984D01*
X10682086Y-10263984D02*
X10682086Y-10283031D01*
X10805896Y-10463984D02*
X10786848Y-10454460D01*
X10786848Y-10454460D02*
X10777324Y-10435412D01*
X10777324Y-10435412D02*
X10777324Y-10263984D01*
X10910658Y-10463984D02*
X10891610Y-10454460D01*
X10891610Y-10454460D02*
X10882086Y-10435412D01*
X10882086Y-10435412D02*
X10882086Y-10263984D01*
X11139229Y-10463984D02*
X11139229Y-10263984D01*
X11139229Y-10263984D02*
X11205896Y-10406841D01*
X11205896Y-10406841D02*
X11272562Y-10263984D01*
X11272562Y-10263984D02*
X11272562Y-10463984D01*
X11453515Y-10463984D02*
X11453515Y-10359222D01*
X11453515Y-10359222D02*
X11443991Y-10340174D01*
X11443991Y-10340174D02*
X11424943Y-10330650D01*
X11424943Y-10330650D02*
X11386848Y-10330650D01*
X11386848Y-10330650D02*
X11367801Y-10340174D01*
X11453515Y-10454460D02*
X11434467Y-10463984D01*
X11434467Y-10463984D02*
X11386848Y-10463984D01*
X11386848Y-10463984D02*
X11367801Y-10454460D01*
X11367801Y-10454460D02*
X11358277Y-10435412D01*
X11358277Y-10435412D02*
X11358277Y-10416365D01*
X11358277Y-10416365D02*
X11367801Y-10397317D01*
X11367801Y-10397317D02*
X11386848Y-10387793D01*
X11386848Y-10387793D02*
X11434467Y-10387793D01*
X11434467Y-10387793D02*
X11453515Y-10378270D01*
X11548753Y-10330650D02*
X11548753Y-10530650D01*
X11548753Y-10340174D02*
X11567801Y-10330650D01*
X11567801Y-10330650D02*
X11605896Y-10330650D01*
X11605896Y-10330650D02*
X11624943Y-10340174D01*
X11624943Y-10340174D02*
X11634467Y-10349698D01*
X11634467Y-10349698D02*
X11643991Y-10368746D01*
X11643991Y-10368746D02*
X11643991Y-10425889D01*
X11643991Y-10425889D02*
X11634467Y-10444936D01*
X11634467Y-10444936D02*
X11624943Y-10454460D01*
X11624943Y-10454460D02*
X11605896Y-10463984D01*
X11605896Y-10463984D02*
X11567801Y-10463984D01*
X11567801Y-10463984D02*
X11548753Y-10454460D01*
X11729705Y-10444936D02*
X11739229Y-10454460D01*
X11739229Y-10454460D02*
X11729705Y-10463984D01*
X11729705Y-10463984D02*
X11720182Y-10454460D01*
X11720182Y-10454460D02*
X11729705Y-10444936D01*
X11729705Y-10444936D02*
X11729705Y-10463984D01*
X11729705Y-10340174D02*
X11739229Y-10349698D01*
X11739229Y-10349698D02*
X11729705Y-10359222D01*
X11729705Y-10359222D02*
X11720182Y-10349698D01*
X11720182Y-10349698D02*
X11729705Y-10340174D01*
X11729705Y-10340174D02*
X11729705Y-10359222D01*
M02*
