%TF.GenerationSoftware,KiCad,Pcbnew,9.0.7-1.fc42*%
%TF.CreationDate,2026-02-18T17:36:32+01:00*%
%TF.ProjectId,bananabus,62616e61-6e61-4627-9573-2e6b69636164,rev?*%
%TF.SameCoordinates,Original*%
%TF.FileFunction,Soldermask,Bot*%
%TF.FilePolarity,Negative*%
%FSLAX46Y46*%
G04 Gerber Fmt 4.6, Leading zero omitted, Abs format (unit mm)*
G04 Created by KiCad (PCBNEW 9.0.7-1.fc42) date 2026-02-18 17:36:32*
%MOMM*%
%LPD*%
G01*
G04 APERTURE LIST*
G04 Aperture macros list*
%AMRoundRect*
0 Rectangle with rounded corners*
0 $1 Rounding radius*
0 $2 $3 $4 $5 $6 $7 $8 $9 X,Y pos of 4 corners*
0 Add a 4 corners polygon primitive as box body*
4,1,4,$2,$3,$4,$5,$6,$7,$8,$9,$2,$3,0*
0 Add four circle primitives for the rounded corners*
1,1,$1+$1,$2,$3*
1,1,$1+$1,$4,$5*
1,1,$1+$1,$6,$7*
1,1,$1+$1,$8,$9*
0 Add four rect primitives between the rounded corners*
20,1,$1+$1,$2,$3,$4,$5,0*
20,1,$1+$1,$4,$5,$6,$7,0*
20,1,$1+$1,$6,$7,$8,$9,0*
20,1,$1+$1,$8,$9,$2,$3,0*%
G04 Aperture macros list end*
%ADD10C,0.100000*%
%ADD11C,3.000000*%
%ADD12RoundRect,0.250000X-0.600000X-0.600000X0.600000X-0.600000X0.600000X0.600000X-0.600000X0.600000X0*%
%ADD13C,1.700000*%
%ADD14C,6.400000*%
%ADD15RoundRect,0.250000X0.450000X-0.325000X0.450000X0.325000X-0.450000X0.325000X-0.450000X-0.325000X0*%
%ADD16RoundRect,0.237500X0.237500X-0.250000X0.237500X0.250000X-0.237500X0.250000X-0.237500X-0.250000X0*%
G04 APERTURE END LIST*
D10*
X191000000Y-74000000D02*
X193000000Y-74000000D01*
X193000000Y-76000000D01*
X191000000Y-76000000D01*
X191000000Y-74000000D01*
G36*
X191000000Y-74000000D02*
G01*
X193000000Y-74000000D01*
X193000000Y-76000000D01*
X191000000Y-76000000D01*
X191000000Y-74000000D01*
G37*
X191000000Y-80000000D02*
X193000000Y-80000000D01*
X193000000Y-82000000D01*
X191000000Y-82000000D01*
X191000000Y-80000000D01*
G36*
X191000000Y-80000000D02*
G01*
X193000000Y-80000000D01*
X193000000Y-82000000D01*
X191000000Y-82000000D01*
X191000000Y-80000000D01*
G37*
X191000000Y-86000000D02*
X193000000Y-86000000D01*
X193000000Y-88000000D01*
X191000000Y-88000000D01*
X191000000Y-86000000D01*
G36*
X191000000Y-86000000D02*
G01*
X193000000Y-86000000D01*
X193000000Y-88000000D01*
X191000000Y-88000000D01*
X191000000Y-86000000D01*
G37*
D11*
%TO.C,J7*%
X104000000Y-72900000D03*
X119500000Y-72900000D03*
%TD*%
%TO.C,J8*%
X119500000Y-93300000D03*
X104000000Y-93300000D03*
%TD*%
D12*
%TO.C,J3*%
X165460000Y-69220000D03*
D13*
X168000000Y-69220000D03*
X165460000Y-71760000D03*
X168000000Y-71760000D03*
X165460000Y-74300000D03*
X168000000Y-74300000D03*
X165460000Y-76840000D03*
X168000000Y-76840000D03*
X165460000Y-79380000D03*
X168000000Y-79380000D03*
X165460000Y-81920000D03*
X168000000Y-81920000D03*
X165460000Y-84460000D03*
X168000000Y-84460000D03*
X165460000Y-87000000D03*
X168000000Y-87000000D03*
%TD*%
D14*
%TO.C,H1*%
X192000000Y-60000000D03*
%TD*%
%TO.C,H4*%
X127000000Y-97000000D03*
%TD*%
D12*
%TO.C,J1*%
X133460000Y-69220000D03*
D13*
X136000000Y-69220000D03*
X133460000Y-71760000D03*
X136000000Y-71760000D03*
X133460000Y-74300000D03*
X136000000Y-74300000D03*
X133460000Y-76840000D03*
X136000000Y-76840000D03*
X133460000Y-79380000D03*
X136000000Y-79380000D03*
X133460000Y-81920000D03*
X136000000Y-81920000D03*
X133460000Y-84460000D03*
X136000000Y-84460000D03*
X133460000Y-87000000D03*
X136000000Y-87000000D03*
%TD*%
D14*
%TO.C,H2*%
X192000000Y-97000000D03*
%TD*%
D11*
%TO.C,J6*%
X119500000Y-83100000D03*
X104000000Y-83100000D03*
%TD*%
%TO.C,J5*%
X119500000Y-62700000D03*
X104000000Y-62700000D03*
%TD*%
D12*
%TO.C,J4*%
X181460000Y-69220000D03*
D13*
X184000000Y-69220000D03*
X181460000Y-71760000D03*
X184000000Y-71760000D03*
X181460000Y-74300000D03*
X184000000Y-74300000D03*
X181460000Y-76840000D03*
X184000000Y-76840000D03*
X181460000Y-79380000D03*
X184000000Y-79380000D03*
X181460000Y-81920000D03*
X184000000Y-81920000D03*
X181460000Y-84460000D03*
X184000000Y-84460000D03*
X181460000Y-87000000D03*
X184000000Y-87000000D03*
%TD*%
D12*
%TO.C,J2*%
X149460000Y-69220000D03*
D13*
X152000000Y-69220000D03*
X149460000Y-71760000D03*
X152000000Y-71760000D03*
X149460000Y-74300000D03*
X152000000Y-74300000D03*
X149460000Y-76840000D03*
X152000000Y-76840000D03*
X149460000Y-79380000D03*
X152000000Y-79380000D03*
X149460000Y-81920000D03*
X152000000Y-81920000D03*
X149460000Y-84460000D03*
X152000000Y-84460000D03*
X149460000Y-87000000D03*
X152000000Y-87000000D03*
%TD*%
D14*
%TO.C,H3*%
X127000000Y-60000000D03*
%TD*%
D15*
%TO.C,D3*%
X192000000Y-76025000D03*
X192000000Y-73975000D03*
%TD*%
D16*
%TO.C,R1*%
X188000000Y-87912500D03*
X188000000Y-86087500D03*
%TD*%
D15*
%TO.C,D1*%
X192000000Y-82025000D03*
X192000000Y-79975000D03*
%TD*%
D16*
%TO.C,R4*%
X188000000Y-81912500D03*
X188000000Y-80087500D03*
%TD*%
%TO.C,R2*%
X188000000Y-75912500D03*
X188000000Y-74087500D03*
%TD*%
D15*
%TO.C,D2*%
X192000000Y-88025000D03*
X192000000Y-85975000D03*
%TD*%
M02*
