%TF.GenerationSoftware,KiCad,Pcbnew,9.0.7-1.fc42*%
%TF.CreationDate,2026-02-18T17:36:39+01:00*%
%TF.ProjectId,bananabus,62616e61-6e61-4627-9573-2e6b69636164,rev?*%
%TF.SameCoordinates,Original*%
%TF.FileFunction,Drillmap*%
%TF.FilePolarity,Positive*%
%FSLAX45Y45*%
G04 Gerber Fmt 4.5, Leading zero omitted, Abs format (unit mm)*
G04 Created by KiCad (PCBNEW 9.0.7-1.fc42) date 2026-02-18 17:36:39*
%MOMM*%
%LPD*%
G01*
G04 APERTURE LIST*
%ADD10C,0.050000*%
%ADD11C,0.200000*%
%ADD12C,0.100000*%
%ADD13C,0.140000*%
%ADD14C,0.320000*%
G04 APERTURE END LIST*
D10*
X10100000Y-5550000D02*
X19600000Y-5550000D01*
X19600000Y-10150000D01*
X10100000Y-10150000D01*
X10100000Y-5550000D01*
D11*
D12*
X18585000Y-8085000D02*
X18615000Y-8115000D01*
X18615000Y-8085000D02*
X18585000Y-8115000D01*
X13396000Y-6922000D02*
G75*
G02*
X13296000Y-6922000I-50000J0D01*
G01*
X13296000Y-6922000D02*
G75*
G02*
X13396000Y-6922000I50000J0D01*
G01*
X13396000Y-7176000D02*
G75*
G02*
X13296000Y-7176000I-50000J0D01*
G01*
X13296000Y-7176000D02*
G75*
G02*
X13396000Y-7176000I50000J0D01*
G01*
X13396000Y-7430000D02*
G75*
G02*
X13296000Y-7430000I-50000J0D01*
G01*
X13296000Y-7430000D02*
G75*
G02*
X13396000Y-7430000I50000J0D01*
G01*
X13396000Y-7684000D02*
G75*
G02*
X13296000Y-7684000I-50000J0D01*
G01*
X13296000Y-7684000D02*
G75*
G02*
X13396000Y-7684000I50000J0D01*
G01*
X13396000Y-7938000D02*
G75*
G02*
X13296000Y-7938000I-50000J0D01*
G01*
X13296000Y-7938000D02*
G75*
G02*
X13396000Y-7938000I50000J0D01*
G01*
X13396000Y-8192000D02*
G75*
G02*
X13296000Y-8192000I-50000J0D01*
G01*
X13296000Y-8192000D02*
G75*
G02*
X13396000Y-8192000I50000J0D01*
G01*
X13396000Y-8446000D02*
G75*
G02*
X13296000Y-8446000I-50000J0D01*
G01*
X13296000Y-8446000D02*
G75*
G02*
X13396000Y-8446000I50000J0D01*
G01*
X13396000Y-8700000D02*
G75*
G02*
X13296000Y-8700000I-50000J0D01*
G01*
X13296000Y-8700000D02*
G75*
G02*
X13396000Y-8700000I50000J0D01*
G01*
X13650000Y-6922000D02*
G75*
G02*
X13550000Y-6922000I-50000J0D01*
G01*
X13550000Y-6922000D02*
G75*
G02*
X13650000Y-6922000I50000J0D01*
G01*
X13650000Y-7176000D02*
G75*
G02*
X13550000Y-7176000I-50000J0D01*
G01*
X13550000Y-7176000D02*
G75*
G02*
X13650000Y-7176000I50000J0D01*
G01*
X13650000Y-7430000D02*
G75*
G02*
X13550000Y-7430000I-50000J0D01*
G01*
X13550000Y-7430000D02*
G75*
G02*
X13650000Y-7430000I50000J0D01*
G01*
X13650000Y-7684000D02*
G75*
G02*
X13550000Y-7684000I-50000J0D01*
G01*
X13550000Y-7684000D02*
G75*
G02*
X13650000Y-7684000I50000J0D01*
G01*
X13650000Y-7938000D02*
G75*
G02*
X13550000Y-7938000I-50000J0D01*
G01*
X13550000Y-7938000D02*
G75*
G02*
X13650000Y-7938000I50000J0D01*
G01*
X13650000Y-8192000D02*
G75*
G02*
X13550000Y-8192000I-50000J0D01*
G01*
X13550000Y-8192000D02*
G75*
G02*
X13650000Y-8192000I50000J0D01*
G01*
X13650000Y-8446000D02*
G75*
G02*
X13550000Y-8446000I-50000J0D01*
G01*
X13550000Y-8446000D02*
G75*
G02*
X13650000Y-8446000I50000J0D01*
G01*
X13650000Y-8700000D02*
G75*
G02*
X13550000Y-8700000I-50000J0D01*
G01*
X13550000Y-8700000D02*
G75*
G02*
X13650000Y-8700000I50000J0D01*
G01*
X14996000Y-6922000D02*
G75*
G02*
X14896000Y-6922000I-50000J0D01*
G01*
X14896000Y-6922000D02*
G75*
G02*
X14996000Y-6922000I50000J0D01*
G01*
X14996000Y-7176000D02*
G75*
G02*
X14896000Y-7176000I-50000J0D01*
G01*
X14896000Y-7176000D02*
G75*
G02*
X14996000Y-7176000I50000J0D01*
G01*
X14996000Y-7430000D02*
G75*
G02*
X14896000Y-7430000I-50000J0D01*
G01*
X14896000Y-7430000D02*
G75*
G02*
X14996000Y-7430000I50000J0D01*
G01*
X14996000Y-7684000D02*
G75*
G02*
X14896000Y-7684000I-50000J0D01*
G01*
X14896000Y-7684000D02*
G75*
G02*
X14996000Y-7684000I50000J0D01*
G01*
X14996000Y-7938000D02*
G75*
G02*
X14896000Y-7938000I-50000J0D01*
G01*
X14896000Y-7938000D02*
G75*
G02*
X14996000Y-7938000I50000J0D01*
G01*
X14996000Y-8192000D02*
G75*
G02*
X14896000Y-8192000I-50000J0D01*
G01*
X14896000Y-8192000D02*
G75*
G02*
X14996000Y-8192000I50000J0D01*
G01*
X14996000Y-8446000D02*
G75*
G02*
X14896000Y-8446000I-50000J0D01*
G01*
X14896000Y-8446000D02*
G75*
G02*
X14996000Y-8446000I50000J0D01*
G01*
X14996000Y-8700000D02*
G75*
G02*
X14896000Y-8700000I-50000J0D01*
G01*
X14896000Y-8700000D02*
G75*
G02*
X14996000Y-8700000I50000J0D01*
G01*
X15250000Y-6922000D02*
G75*
G02*
X15150000Y-6922000I-50000J0D01*
G01*
X15150000Y-6922000D02*
G75*
G02*
X15250000Y-6922000I50000J0D01*
G01*
X15250000Y-7176000D02*
G75*
G02*
X15150000Y-7176000I-50000J0D01*
G01*
X15150000Y-7176000D02*
G75*
G02*
X15250000Y-7176000I50000J0D01*
G01*
X15250000Y-7430000D02*
G75*
G02*
X15150000Y-7430000I-50000J0D01*
G01*
X15150000Y-7430000D02*
G75*
G02*
X15250000Y-7430000I50000J0D01*
G01*
X15250000Y-7684000D02*
G75*
G02*
X15150000Y-7684000I-50000J0D01*
G01*
X15150000Y-7684000D02*
G75*
G02*
X15250000Y-7684000I50000J0D01*
G01*
X15250000Y-7938000D02*
G75*
G02*
X15150000Y-7938000I-50000J0D01*
G01*
X15150000Y-7938000D02*
G75*
G02*
X15250000Y-7938000I50000J0D01*
G01*
X15250000Y-8192000D02*
G75*
G02*
X15150000Y-8192000I-50000J0D01*
G01*
X15150000Y-8192000D02*
G75*
G02*
X15250000Y-8192000I50000J0D01*
G01*
X15250000Y-8446000D02*
G75*
G02*
X15150000Y-8446000I-50000J0D01*
G01*
X15150000Y-8446000D02*
G75*
G02*
X15250000Y-8446000I50000J0D01*
G01*
X15250000Y-8700000D02*
G75*
G02*
X15150000Y-8700000I-50000J0D01*
G01*
X15150000Y-8700000D02*
G75*
G02*
X15250000Y-8700000I50000J0D01*
G01*
X16596000Y-6922000D02*
G75*
G02*
X16496000Y-6922000I-50000J0D01*
G01*
X16496000Y-6922000D02*
G75*
G02*
X16596000Y-6922000I50000J0D01*
G01*
X16596000Y-7176000D02*
G75*
G02*
X16496000Y-7176000I-50000J0D01*
G01*
X16496000Y-7176000D02*
G75*
G02*
X16596000Y-7176000I50000J0D01*
G01*
X16596000Y-7430000D02*
G75*
G02*
X16496000Y-7430000I-50000J0D01*
G01*
X16496000Y-7430000D02*
G75*
G02*
X16596000Y-7430000I50000J0D01*
G01*
X16596000Y-7684000D02*
G75*
G02*
X16496000Y-7684000I-50000J0D01*
G01*
X16496000Y-7684000D02*
G75*
G02*
X16596000Y-7684000I50000J0D01*
G01*
X16596000Y-7938000D02*
G75*
G02*
X16496000Y-7938000I-50000J0D01*
G01*
X16496000Y-7938000D02*
G75*
G02*
X16596000Y-7938000I50000J0D01*
G01*
X16596000Y-8192000D02*
G75*
G02*
X16496000Y-8192000I-50000J0D01*
G01*
X16496000Y-8192000D02*
G75*
G02*
X16596000Y-8192000I50000J0D01*
G01*
X16596000Y-8446000D02*
G75*
G02*
X16496000Y-8446000I-50000J0D01*
G01*
X16496000Y-8446000D02*
G75*
G02*
X16596000Y-8446000I50000J0D01*
G01*
X16596000Y-8700000D02*
G75*
G02*
X16496000Y-8700000I-50000J0D01*
G01*
X16496000Y-8700000D02*
G75*
G02*
X16596000Y-8700000I50000J0D01*
G01*
X16850000Y-6922000D02*
G75*
G02*
X16750000Y-6922000I-50000J0D01*
G01*
X16750000Y-6922000D02*
G75*
G02*
X16850000Y-6922000I50000J0D01*
G01*
X16850000Y-7176000D02*
G75*
G02*
X16750000Y-7176000I-50000J0D01*
G01*
X16750000Y-7176000D02*
G75*
G02*
X16850000Y-7176000I50000J0D01*
G01*
X16850000Y-7430000D02*
G75*
G02*
X16750000Y-7430000I-50000J0D01*
G01*
X16750000Y-7430000D02*
G75*
G02*
X16850000Y-7430000I50000J0D01*
G01*
X16850000Y-7684000D02*
G75*
G02*
X16750000Y-7684000I-50000J0D01*
G01*
X16750000Y-7684000D02*
G75*
G02*
X16850000Y-7684000I50000J0D01*
G01*
X16850000Y-7938000D02*
G75*
G02*
X16750000Y-7938000I-50000J0D01*
G01*
X16750000Y-7938000D02*
G75*
G02*
X16850000Y-7938000I50000J0D01*
G01*
X16850000Y-8192000D02*
G75*
G02*
X16750000Y-8192000I-50000J0D01*
G01*
X16750000Y-8192000D02*
G75*
G02*
X16850000Y-8192000I50000J0D01*
G01*
X16850000Y-8446000D02*
G75*
G02*
X16750000Y-8446000I-50000J0D01*
G01*
X16750000Y-8446000D02*
G75*
G02*
X16850000Y-8446000I50000J0D01*
G01*
X16850000Y-8700000D02*
G75*
G02*
X16750000Y-8700000I-50000J0D01*
G01*
X16750000Y-8700000D02*
G75*
G02*
X16850000Y-8700000I50000J0D01*
G01*
X18196000Y-6922000D02*
G75*
G02*
X18096000Y-6922000I-50000J0D01*
G01*
X18096000Y-6922000D02*
G75*
G02*
X18196000Y-6922000I50000J0D01*
G01*
X18196000Y-7176000D02*
G75*
G02*
X18096000Y-7176000I-50000J0D01*
G01*
X18096000Y-7176000D02*
G75*
G02*
X18196000Y-7176000I50000J0D01*
G01*
X18196000Y-7430000D02*
G75*
G02*
X18096000Y-7430000I-50000J0D01*
G01*
X18096000Y-7430000D02*
G75*
G02*
X18196000Y-7430000I50000J0D01*
G01*
X18196000Y-7684000D02*
G75*
G02*
X18096000Y-7684000I-50000J0D01*
G01*
X18096000Y-7684000D02*
G75*
G02*
X18196000Y-7684000I50000J0D01*
G01*
X18196000Y-7938000D02*
G75*
G02*
X18096000Y-7938000I-50000J0D01*
G01*
X18096000Y-7938000D02*
G75*
G02*
X18196000Y-7938000I50000J0D01*
G01*
X18196000Y-8192000D02*
G75*
G02*
X18096000Y-8192000I-50000J0D01*
G01*
X18096000Y-8192000D02*
G75*
G02*
X18196000Y-8192000I50000J0D01*
G01*
X18196000Y-8446000D02*
G75*
G02*
X18096000Y-8446000I-50000J0D01*
G01*
X18096000Y-8446000D02*
G75*
G02*
X18196000Y-8446000I50000J0D01*
G01*
X18196000Y-8700000D02*
G75*
G02*
X18096000Y-8700000I-50000J0D01*
G01*
X18096000Y-8700000D02*
G75*
G02*
X18196000Y-8700000I50000J0D01*
G01*
X18450000Y-6922000D02*
G75*
G02*
X18350000Y-6922000I-50000J0D01*
G01*
X18350000Y-6922000D02*
G75*
G02*
X18450000Y-6922000I50000J0D01*
G01*
X18450000Y-7176000D02*
G75*
G02*
X18350000Y-7176000I-50000J0D01*
G01*
X18350000Y-7176000D02*
G75*
G02*
X18450000Y-7176000I50000J0D01*
G01*
X18450000Y-7430000D02*
G75*
G02*
X18350000Y-7430000I-50000J0D01*
G01*
X18350000Y-7430000D02*
G75*
G02*
X18450000Y-7430000I50000J0D01*
G01*
X18450000Y-7684000D02*
G75*
G02*
X18350000Y-7684000I-50000J0D01*
G01*
X18350000Y-7684000D02*
G75*
G02*
X18450000Y-7684000I50000J0D01*
G01*
X18450000Y-7938000D02*
G75*
G02*
X18350000Y-7938000I-50000J0D01*
G01*
X18350000Y-7938000D02*
G75*
G02*
X18450000Y-7938000I50000J0D01*
G01*
X18450000Y-8192000D02*
G75*
G02*
X18350000Y-8192000I-50000J0D01*
G01*
X18350000Y-8192000D02*
G75*
G02*
X18450000Y-8192000I50000J0D01*
G01*
X18450000Y-8446000D02*
G75*
G02*
X18350000Y-8446000I-50000J0D01*
G01*
X18350000Y-8446000D02*
G75*
G02*
X18450000Y-8446000I50000J0D01*
G01*
X18450000Y-8700000D02*
G75*
G02*
X18350000Y-8700000I-50000J0D01*
G01*
X18350000Y-8700000D02*
G75*
G02*
X18450000Y-8700000I50000J0D01*
G01*
D13*
X10400000Y-6200000D02*
X10400000Y-6340000D01*
X10330000Y-6270000D02*
X10470000Y-6270000D01*
X10400000Y-7220000D02*
X10400000Y-7360000D01*
X10330000Y-7290000D02*
X10470000Y-7290000D01*
X10400000Y-8240000D02*
X10400000Y-8380000D01*
X10330000Y-8310000D02*
X10470000Y-8310000D01*
X10400000Y-9260000D02*
X10400000Y-9400000D01*
X10330000Y-9330000D02*
X10470000Y-9330000D01*
X11950000Y-6200000D02*
X11950000Y-6340000D01*
X11880000Y-6270000D02*
X12020000Y-6270000D01*
X11950000Y-7220000D02*
X11950000Y-7360000D01*
X11880000Y-7290000D02*
X12020000Y-7290000D01*
X11950000Y-8240000D02*
X11950000Y-8380000D01*
X11880000Y-8310000D02*
X12020000Y-8310000D01*
X11950000Y-9260000D02*
X11950000Y-9400000D01*
X11880000Y-9330000D02*
X12020000Y-9330000D01*
D14*
X12813138Y-6113138D02*
X12813138Y-5886862D01*
X12586862Y-5886862D01*
X12586862Y-6113138D01*
X12813138Y-6113138D01*
X12813138Y-9813138D02*
X12813138Y-9586862D01*
X12586862Y-9586862D01*
X12586862Y-9813138D01*
X12813138Y-9813138D01*
X19313138Y-6113138D02*
X19313138Y-5886862D01*
X19086862Y-5886862D01*
X19086862Y-6113138D01*
X19313138Y-6113138D01*
X19313138Y-9813138D02*
X19313138Y-9586862D01*
X19086862Y-9586862D01*
X19086862Y-9813138D01*
X19313138Y-9813138D01*
D11*
X10358277Y-10463984D02*
X10358277Y-10263984D01*
X10358277Y-10263984D02*
X10405896Y-10263984D01*
X10405896Y-10263984D02*
X10434467Y-10273508D01*
X10434467Y-10273508D02*
X10453515Y-10292555D01*
X10453515Y-10292555D02*
X10463039Y-10311603D01*
X10463039Y-10311603D02*
X10472563Y-10349698D01*
X10472563Y-10349698D02*
X10472563Y-10378270D01*
X10472563Y-10378270D02*
X10463039Y-10416365D01*
X10463039Y-10416365D02*
X10453515Y-10435412D01*
X10453515Y-10435412D02*
X10434467Y-10454460D01*
X10434467Y-10454460D02*
X10405896Y-10463984D01*
X10405896Y-10463984D02*
X10358277Y-10463984D01*
X10558277Y-10463984D02*
X10558277Y-10330650D01*
X10558277Y-10368746D02*
X10567801Y-10349698D01*
X10567801Y-10349698D02*
X10577324Y-10340174D01*
X10577324Y-10340174D02*
X10596372Y-10330650D01*
X10596372Y-10330650D02*
X10615420Y-10330650D01*
X10682086Y-10463984D02*
X10682086Y-10330650D01*
X10682086Y-10263984D02*
X10672563Y-10273508D01*
X10672563Y-10273508D02*
X10682086Y-10283031D01*
X10682086Y-10283031D02*
X10691610Y-10273508D01*
X10691610Y-10273508D02*
X10682086Y-10263984D01*
X10682086Y-10263984D02*
X10682086Y-10283031D01*
X10805896Y-10463984D02*
X10786848Y-10454460D01*
X10786848Y-10454460D02*
X10777324Y-10435412D01*
X10777324Y-10435412D02*
X10777324Y-10263984D01*
X10910658Y-10463984D02*
X10891610Y-10454460D01*
X10891610Y-10454460D02*
X10882086Y-10435412D01*
X10882086Y-10435412D02*
X10882086Y-10263984D01*
X11139229Y-10463984D02*
X11139229Y-10263984D01*
X11139229Y-10263984D02*
X11205896Y-10406841D01*
X11205896Y-10406841D02*
X11272562Y-10263984D01*
X11272562Y-10263984D02*
X11272562Y-10463984D01*
X11453515Y-10463984D02*
X11453515Y-10359222D01*
X11453515Y-10359222D02*
X11443991Y-10340174D01*
X11443991Y-10340174D02*
X11424943Y-10330650D01*
X11424943Y-10330650D02*
X11386848Y-10330650D01*
X11386848Y-10330650D02*
X11367801Y-10340174D01*
X11453515Y-10454460D02*
X11434467Y-10463984D01*
X11434467Y-10463984D02*
X11386848Y-10463984D01*
X11386848Y-10463984D02*
X11367801Y-10454460D01*
X11367801Y-10454460D02*
X11358277Y-10435412D01*
X11358277Y-10435412D02*
X11358277Y-10416365D01*
X11358277Y-10416365D02*
X11367801Y-10397317D01*
X11367801Y-10397317D02*
X11386848Y-10387793D01*
X11386848Y-10387793D02*
X11434467Y-10387793D01*
X11434467Y-10387793D02*
X11453515Y-10378270D01*
X11548753Y-10330650D02*
X11548753Y-10530650D01*
X11548753Y-10340174D02*
X11567801Y-10330650D01*
X11567801Y-10330650D02*
X11605896Y-10330650D01*
X11605896Y-10330650D02*
X11624943Y-10340174D01*
X11624943Y-10340174D02*
X11634467Y-10349698D01*
X11634467Y-10349698D02*
X11643991Y-10368746D01*
X11643991Y-10368746D02*
X11643991Y-10425889D01*
X11643991Y-10425889D02*
X11634467Y-10444936D01*
X11634467Y-10444936D02*
X11624943Y-10454460D01*
X11624943Y-10454460D02*
X11605896Y-10463984D01*
X11605896Y-10463984D02*
X11567801Y-10463984D01*
X11567801Y-10463984D02*
X11548753Y-10454460D01*
X11729705Y-10444936D02*
X11739229Y-10454460D01*
X11739229Y-10454460D02*
X11729705Y-10463984D01*
X11729705Y-10463984D02*
X11720182Y-10454460D01*
X11720182Y-10454460D02*
X11729705Y-10444936D01*
X11729705Y-10444936D02*
X11729705Y-10463984D01*
X11729705Y-10340174D02*
X11739229Y-10349698D01*
X11739229Y-10349698D02*
X11729705Y-10359222D01*
X11729705Y-10359222D02*
X11720182Y-10349698D01*
X11720182Y-10349698D02*
X11729705Y-10340174D01*
X11729705Y-10340174D02*
X11729705Y-10359222D01*
D12*
X10067500Y-10777500D02*
X10097500Y-10807500D01*
X10097500Y-10777500D02*
X10067500Y-10807500D01*
D11*
X10396372Y-10683984D02*
X10415420Y-10683984D01*
X10415420Y-10683984D02*
X10434467Y-10693508D01*
X10434467Y-10693508D02*
X10443991Y-10703031D01*
X10443991Y-10703031D02*
X10453515Y-10722079D01*
X10453515Y-10722079D02*
X10463039Y-10760174D01*
X10463039Y-10760174D02*
X10463039Y-10807793D01*
X10463039Y-10807793D02*
X10453515Y-10845889D01*
X10453515Y-10845889D02*
X10443991Y-10864936D01*
X10443991Y-10864936D02*
X10434467Y-10874460D01*
X10434467Y-10874460D02*
X10415420Y-10883984D01*
X10415420Y-10883984D02*
X10396372Y-10883984D01*
X10396372Y-10883984D02*
X10377324Y-10874460D01*
X10377324Y-10874460D02*
X10367801Y-10864936D01*
X10367801Y-10864936D02*
X10358277Y-10845889D01*
X10358277Y-10845889D02*
X10348753Y-10807793D01*
X10348753Y-10807793D02*
X10348753Y-10760174D01*
X10348753Y-10760174D02*
X10358277Y-10722079D01*
X10358277Y-10722079D02*
X10367801Y-10703031D01*
X10367801Y-10703031D02*
X10377324Y-10693508D01*
X10377324Y-10693508D02*
X10396372Y-10683984D01*
X10548753Y-10864936D02*
X10558277Y-10874460D01*
X10558277Y-10874460D02*
X10548753Y-10883984D01*
X10548753Y-10883984D02*
X10539229Y-10874460D01*
X10539229Y-10874460D02*
X10548753Y-10864936D01*
X10548753Y-10864936D02*
X10548753Y-10883984D01*
X10624944Y-10683984D02*
X10748753Y-10683984D01*
X10748753Y-10683984D02*
X10682086Y-10760174D01*
X10682086Y-10760174D02*
X10710658Y-10760174D01*
X10710658Y-10760174D02*
X10729705Y-10769698D01*
X10729705Y-10769698D02*
X10739229Y-10779222D01*
X10739229Y-10779222D02*
X10748753Y-10798270D01*
X10748753Y-10798270D02*
X10748753Y-10845889D01*
X10748753Y-10845889D02*
X10739229Y-10864936D01*
X10739229Y-10864936D02*
X10729705Y-10874460D01*
X10729705Y-10874460D02*
X10710658Y-10883984D01*
X10710658Y-10883984D02*
X10653515Y-10883984D01*
X10653515Y-10883984D02*
X10634467Y-10874460D01*
X10634467Y-10874460D02*
X10624944Y-10864936D01*
X10872563Y-10683984D02*
X10891610Y-10683984D01*
X10891610Y-10683984D02*
X10910658Y-10693508D01*
X10910658Y-10693508D02*
X10920182Y-10703031D01*
X10920182Y-10703031D02*
X10929705Y-10722079D01*
X10929705Y-10722079D02*
X10939229Y-10760174D01*
X10939229Y-10760174D02*
X10939229Y-10807793D01*
X10939229Y-10807793D02*
X10929705Y-10845889D01*
X10929705Y-10845889D02*
X10920182Y-10864936D01*
X10920182Y-10864936D02*
X10910658Y-10874460D01*
X10910658Y-10874460D02*
X10891610Y-10883984D01*
X10891610Y-10883984D02*
X10872563Y-10883984D01*
X10872563Y-10883984D02*
X10853515Y-10874460D01*
X10853515Y-10874460D02*
X10843991Y-10864936D01*
X10843991Y-10864936D02*
X10834467Y-10845889D01*
X10834467Y-10845889D02*
X10824944Y-10807793D01*
X10824944Y-10807793D02*
X10824944Y-10760174D01*
X10824944Y-10760174D02*
X10834467Y-10722079D01*
X10834467Y-10722079D02*
X10843991Y-10703031D01*
X10843991Y-10703031D02*
X10853515Y-10693508D01*
X10853515Y-10693508D02*
X10872563Y-10683984D01*
X11063039Y-10683984D02*
X11082086Y-10683984D01*
X11082086Y-10683984D02*
X11101134Y-10693508D01*
X11101134Y-10693508D02*
X11110658Y-10703031D01*
X11110658Y-10703031D02*
X11120182Y-10722079D01*
X11120182Y-10722079D02*
X11129705Y-10760174D01*
X11129705Y-10760174D02*
X11129705Y-10807793D01*
X11129705Y-10807793D02*
X11120182Y-10845889D01*
X11120182Y-10845889D02*
X11110658Y-10864936D01*
X11110658Y-10864936D02*
X11101134Y-10874460D01*
X11101134Y-10874460D02*
X11082086Y-10883984D01*
X11082086Y-10883984D02*
X11063039Y-10883984D01*
X11063039Y-10883984D02*
X11043991Y-10874460D01*
X11043991Y-10874460D02*
X11034467Y-10864936D01*
X11034467Y-10864936D02*
X11024944Y-10845889D01*
X11024944Y-10845889D02*
X11015420Y-10807793D01*
X11015420Y-10807793D02*
X11015420Y-10760174D01*
X11015420Y-10760174D02*
X11024944Y-10722079D01*
X11024944Y-10722079D02*
X11034467Y-10703031D01*
X11034467Y-10703031D02*
X11043991Y-10693508D01*
X11043991Y-10693508D02*
X11063039Y-10683984D01*
X11215420Y-10883984D02*
X11215420Y-10750650D01*
X11215420Y-10769698D02*
X11224943Y-10760174D01*
X11224943Y-10760174D02*
X11243991Y-10750650D01*
X11243991Y-10750650D02*
X11272563Y-10750650D01*
X11272563Y-10750650D02*
X11291610Y-10760174D01*
X11291610Y-10760174D02*
X11301134Y-10779222D01*
X11301134Y-10779222D02*
X11301134Y-10883984D01*
X11301134Y-10779222D02*
X11310658Y-10760174D01*
X11310658Y-10760174D02*
X11329705Y-10750650D01*
X11329705Y-10750650D02*
X11358277Y-10750650D01*
X11358277Y-10750650D02*
X11377324Y-10760174D01*
X11377324Y-10760174D02*
X11386848Y-10779222D01*
X11386848Y-10779222D02*
X11386848Y-10883984D01*
X11482086Y-10883984D02*
X11482086Y-10750650D01*
X11482086Y-10769698D02*
X11491610Y-10760174D01*
X11491610Y-10760174D02*
X11510658Y-10750650D01*
X11510658Y-10750650D02*
X11539229Y-10750650D01*
X11539229Y-10750650D02*
X11558277Y-10760174D01*
X11558277Y-10760174D02*
X11567801Y-10779222D01*
X11567801Y-10779222D02*
X11567801Y-10883984D01*
X11567801Y-10779222D02*
X11577324Y-10760174D01*
X11577324Y-10760174D02*
X11596372Y-10750650D01*
X11596372Y-10750650D02*
X11624943Y-10750650D01*
X11624943Y-10750650D02*
X11643991Y-10760174D01*
X11643991Y-10760174D02*
X11653515Y-10779222D01*
X11653515Y-10779222D02*
X11653515Y-10883984D01*
X12043991Y-10674460D02*
X11872563Y-10931603D01*
X12301134Y-10683984D02*
X12320182Y-10683984D01*
X12320182Y-10683984D02*
X12339229Y-10693508D01*
X12339229Y-10693508D02*
X12348753Y-10703031D01*
X12348753Y-10703031D02*
X12358277Y-10722079D01*
X12358277Y-10722079D02*
X12367801Y-10760174D01*
X12367801Y-10760174D02*
X12367801Y-10807793D01*
X12367801Y-10807793D02*
X12358277Y-10845889D01*
X12358277Y-10845889D02*
X12348753Y-10864936D01*
X12348753Y-10864936D02*
X12339229Y-10874460D01*
X12339229Y-10874460D02*
X12320182Y-10883984D01*
X12320182Y-10883984D02*
X12301134Y-10883984D01*
X12301134Y-10883984D02*
X12282086Y-10874460D01*
X12282086Y-10874460D02*
X12272563Y-10864936D01*
X12272563Y-10864936D02*
X12263039Y-10845889D01*
X12263039Y-10845889D02*
X12253515Y-10807793D01*
X12253515Y-10807793D02*
X12253515Y-10760174D01*
X12253515Y-10760174D02*
X12263039Y-10722079D01*
X12263039Y-10722079D02*
X12272563Y-10703031D01*
X12272563Y-10703031D02*
X12282086Y-10693508D01*
X12282086Y-10693508D02*
X12301134Y-10683984D01*
X12453515Y-10864936D02*
X12463039Y-10874460D01*
X12463039Y-10874460D02*
X12453515Y-10883984D01*
X12453515Y-10883984D02*
X12443991Y-10874460D01*
X12443991Y-10874460D02*
X12453515Y-10864936D01*
X12453515Y-10864936D02*
X12453515Y-10883984D01*
X12586848Y-10683984D02*
X12605896Y-10683984D01*
X12605896Y-10683984D02*
X12624944Y-10693508D01*
X12624944Y-10693508D02*
X12634467Y-10703031D01*
X12634467Y-10703031D02*
X12643991Y-10722079D01*
X12643991Y-10722079D02*
X12653515Y-10760174D01*
X12653515Y-10760174D02*
X12653515Y-10807793D01*
X12653515Y-10807793D02*
X12643991Y-10845889D01*
X12643991Y-10845889D02*
X12634467Y-10864936D01*
X12634467Y-10864936D02*
X12624944Y-10874460D01*
X12624944Y-10874460D02*
X12605896Y-10883984D01*
X12605896Y-10883984D02*
X12586848Y-10883984D01*
X12586848Y-10883984D02*
X12567801Y-10874460D01*
X12567801Y-10874460D02*
X12558277Y-10864936D01*
X12558277Y-10864936D02*
X12548753Y-10845889D01*
X12548753Y-10845889D02*
X12539229Y-10807793D01*
X12539229Y-10807793D02*
X12539229Y-10760174D01*
X12539229Y-10760174D02*
X12548753Y-10722079D01*
X12548753Y-10722079D02*
X12558277Y-10703031D01*
X12558277Y-10703031D02*
X12567801Y-10693508D01*
X12567801Y-10693508D02*
X12586848Y-10683984D01*
X12843991Y-10883984D02*
X12729706Y-10883984D01*
X12786848Y-10883984D02*
X12786848Y-10683984D01*
X12786848Y-10683984D02*
X12767801Y-10712555D01*
X12767801Y-10712555D02*
X12748753Y-10731603D01*
X12748753Y-10731603D02*
X12729706Y-10741127D01*
X13034467Y-10883984D02*
X12920182Y-10883984D01*
X12977325Y-10883984D02*
X12977325Y-10683984D01*
X12977325Y-10683984D02*
X12958277Y-10712555D01*
X12958277Y-10712555D02*
X12939229Y-10731603D01*
X12939229Y-10731603D02*
X12920182Y-10741127D01*
X13148753Y-10769698D02*
X13129706Y-10760174D01*
X13129706Y-10760174D02*
X13120182Y-10750650D01*
X13120182Y-10750650D02*
X13110658Y-10731603D01*
X13110658Y-10731603D02*
X13110658Y-10722079D01*
X13110658Y-10722079D02*
X13120182Y-10703031D01*
X13120182Y-10703031D02*
X13129706Y-10693508D01*
X13129706Y-10693508D02*
X13148753Y-10683984D01*
X13148753Y-10683984D02*
X13186848Y-10683984D01*
X13186848Y-10683984D02*
X13205896Y-10693508D01*
X13205896Y-10693508D02*
X13215420Y-10703031D01*
X13215420Y-10703031D02*
X13224944Y-10722079D01*
X13224944Y-10722079D02*
X13224944Y-10731603D01*
X13224944Y-10731603D02*
X13215420Y-10750650D01*
X13215420Y-10750650D02*
X13205896Y-10760174D01*
X13205896Y-10760174D02*
X13186848Y-10769698D01*
X13186848Y-10769698D02*
X13148753Y-10769698D01*
X13148753Y-10769698D02*
X13129706Y-10779222D01*
X13129706Y-10779222D02*
X13120182Y-10788746D01*
X13120182Y-10788746D02*
X13110658Y-10807793D01*
X13110658Y-10807793D02*
X13110658Y-10845889D01*
X13110658Y-10845889D02*
X13120182Y-10864936D01*
X13120182Y-10864936D02*
X13129706Y-10874460D01*
X13129706Y-10874460D02*
X13148753Y-10883984D01*
X13148753Y-10883984D02*
X13186848Y-10883984D01*
X13186848Y-10883984D02*
X13205896Y-10874460D01*
X13205896Y-10874460D02*
X13215420Y-10864936D01*
X13215420Y-10864936D02*
X13224944Y-10845889D01*
X13224944Y-10845889D02*
X13224944Y-10807793D01*
X13224944Y-10807793D02*
X13215420Y-10788746D01*
X13215420Y-10788746D02*
X13205896Y-10779222D01*
X13205896Y-10779222D02*
X13186848Y-10769698D01*
X13301134Y-10683984D02*
X13301134Y-10722079D01*
X13377325Y-10683984D02*
X13377325Y-10722079D01*
X13672563Y-10960174D02*
X13663039Y-10950650D01*
X13663039Y-10950650D02*
X13643991Y-10922079D01*
X13643991Y-10922079D02*
X13634468Y-10903031D01*
X13634468Y-10903031D02*
X13624944Y-10874460D01*
X13624944Y-10874460D02*
X13615420Y-10826841D01*
X13615420Y-10826841D02*
X13615420Y-10788746D01*
X13615420Y-10788746D02*
X13624944Y-10741127D01*
X13624944Y-10741127D02*
X13634468Y-10712555D01*
X13634468Y-10712555D02*
X13643991Y-10693508D01*
X13643991Y-10693508D02*
X13663039Y-10664936D01*
X13663039Y-10664936D02*
X13672563Y-10655412D01*
X13853515Y-10883984D02*
X13739229Y-10883984D01*
X13796372Y-10883984D02*
X13796372Y-10683984D01*
X13796372Y-10683984D02*
X13777325Y-10712555D01*
X13777325Y-10712555D02*
X13758277Y-10731603D01*
X13758277Y-10731603D02*
X13739229Y-10741127D01*
X14091610Y-10883984D02*
X14091610Y-10683984D01*
X14177325Y-10883984D02*
X14177325Y-10779222D01*
X14177325Y-10779222D02*
X14167801Y-10760174D01*
X14167801Y-10760174D02*
X14148753Y-10750650D01*
X14148753Y-10750650D02*
X14120182Y-10750650D01*
X14120182Y-10750650D02*
X14101134Y-10760174D01*
X14101134Y-10760174D02*
X14091610Y-10769698D01*
X14301134Y-10883984D02*
X14282087Y-10874460D01*
X14282087Y-10874460D02*
X14272563Y-10864936D01*
X14272563Y-10864936D02*
X14263039Y-10845889D01*
X14263039Y-10845889D02*
X14263039Y-10788746D01*
X14263039Y-10788746D02*
X14272563Y-10769698D01*
X14272563Y-10769698D02*
X14282087Y-10760174D01*
X14282087Y-10760174D02*
X14301134Y-10750650D01*
X14301134Y-10750650D02*
X14329706Y-10750650D01*
X14329706Y-10750650D02*
X14348753Y-10760174D01*
X14348753Y-10760174D02*
X14358277Y-10769698D01*
X14358277Y-10769698D02*
X14367801Y-10788746D01*
X14367801Y-10788746D02*
X14367801Y-10845889D01*
X14367801Y-10845889D02*
X14358277Y-10864936D01*
X14358277Y-10864936D02*
X14348753Y-10874460D01*
X14348753Y-10874460D02*
X14329706Y-10883984D01*
X14329706Y-10883984D02*
X14301134Y-10883984D01*
X14482087Y-10883984D02*
X14463039Y-10874460D01*
X14463039Y-10874460D02*
X14453515Y-10855412D01*
X14453515Y-10855412D02*
X14453515Y-10683984D01*
X14634468Y-10874460D02*
X14615420Y-10883984D01*
X14615420Y-10883984D02*
X14577325Y-10883984D01*
X14577325Y-10883984D02*
X14558277Y-10874460D01*
X14558277Y-10874460D02*
X14548753Y-10855412D01*
X14548753Y-10855412D02*
X14548753Y-10779222D01*
X14548753Y-10779222D02*
X14558277Y-10760174D01*
X14558277Y-10760174D02*
X14577325Y-10750650D01*
X14577325Y-10750650D02*
X14615420Y-10750650D01*
X14615420Y-10750650D02*
X14634468Y-10760174D01*
X14634468Y-10760174D02*
X14643991Y-10779222D01*
X14643991Y-10779222D02*
X14643991Y-10798270D01*
X14643991Y-10798270D02*
X14548753Y-10817317D01*
X14710658Y-10960174D02*
X14720182Y-10950650D01*
X14720182Y-10950650D02*
X14739230Y-10922079D01*
X14739230Y-10922079D02*
X14748753Y-10903031D01*
X14748753Y-10903031D02*
X14758277Y-10874460D01*
X14758277Y-10874460D02*
X14767801Y-10826841D01*
X14767801Y-10826841D02*
X14767801Y-10788746D01*
X14767801Y-10788746D02*
X14758277Y-10741127D01*
X14758277Y-10741127D02*
X14748753Y-10712555D01*
X14748753Y-10712555D02*
X14739230Y-10693508D01*
X14739230Y-10693508D02*
X14720182Y-10664936D01*
X14720182Y-10664936D02*
X14710658Y-10655412D01*
D12*
X10097500Y-11056500D02*
G75*
G02*
X9997500Y-11056500I-50000J0D01*
G01*
X9997500Y-11056500D02*
G75*
G02*
X10097500Y-11056500I50000J0D01*
G01*
D11*
X10463039Y-11147984D02*
X10348753Y-11147984D01*
X10405896Y-11147984D02*
X10405896Y-10947984D01*
X10405896Y-10947984D02*
X10386848Y-10976555D01*
X10386848Y-10976555D02*
X10367801Y-10995603D01*
X10367801Y-10995603D02*
X10348753Y-11005127D01*
X10548753Y-11128936D02*
X10558277Y-11138460D01*
X10558277Y-11138460D02*
X10548753Y-11147984D01*
X10548753Y-11147984D02*
X10539229Y-11138460D01*
X10539229Y-11138460D02*
X10548753Y-11128936D01*
X10548753Y-11128936D02*
X10548753Y-11147984D01*
X10682086Y-10947984D02*
X10701134Y-10947984D01*
X10701134Y-10947984D02*
X10720182Y-10957508D01*
X10720182Y-10957508D02*
X10729705Y-10967031D01*
X10729705Y-10967031D02*
X10739229Y-10986079D01*
X10739229Y-10986079D02*
X10748753Y-11024174D01*
X10748753Y-11024174D02*
X10748753Y-11071793D01*
X10748753Y-11071793D02*
X10739229Y-11109889D01*
X10739229Y-11109889D02*
X10729705Y-11128936D01*
X10729705Y-11128936D02*
X10720182Y-11138460D01*
X10720182Y-11138460D02*
X10701134Y-11147984D01*
X10701134Y-11147984D02*
X10682086Y-11147984D01*
X10682086Y-11147984D02*
X10663039Y-11138460D01*
X10663039Y-11138460D02*
X10653515Y-11128936D01*
X10653515Y-11128936D02*
X10643991Y-11109889D01*
X10643991Y-11109889D02*
X10634467Y-11071793D01*
X10634467Y-11071793D02*
X10634467Y-11024174D01*
X10634467Y-11024174D02*
X10643991Y-10986079D01*
X10643991Y-10986079D02*
X10653515Y-10967031D01*
X10653515Y-10967031D02*
X10663039Y-10957508D01*
X10663039Y-10957508D02*
X10682086Y-10947984D01*
X10872563Y-10947984D02*
X10891610Y-10947984D01*
X10891610Y-10947984D02*
X10910658Y-10957508D01*
X10910658Y-10957508D02*
X10920182Y-10967031D01*
X10920182Y-10967031D02*
X10929705Y-10986079D01*
X10929705Y-10986079D02*
X10939229Y-11024174D01*
X10939229Y-11024174D02*
X10939229Y-11071793D01*
X10939229Y-11071793D02*
X10929705Y-11109889D01*
X10929705Y-11109889D02*
X10920182Y-11128936D01*
X10920182Y-11128936D02*
X10910658Y-11138460D01*
X10910658Y-11138460D02*
X10891610Y-11147984D01*
X10891610Y-11147984D02*
X10872563Y-11147984D01*
X10872563Y-11147984D02*
X10853515Y-11138460D01*
X10853515Y-11138460D02*
X10843991Y-11128936D01*
X10843991Y-11128936D02*
X10834467Y-11109889D01*
X10834467Y-11109889D02*
X10824944Y-11071793D01*
X10824944Y-11071793D02*
X10824944Y-11024174D01*
X10824944Y-11024174D02*
X10834467Y-10986079D01*
X10834467Y-10986079D02*
X10843991Y-10967031D01*
X10843991Y-10967031D02*
X10853515Y-10957508D01*
X10853515Y-10957508D02*
X10872563Y-10947984D01*
X11063039Y-10947984D02*
X11082086Y-10947984D01*
X11082086Y-10947984D02*
X11101134Y-10957508D01*
X11101134Y-10957508D02*
X11110658Y-10967031D01*
X11110658Y-10967031D02*
X11120182Y-10986079D01*
X11120182Y-10986079D02*
X11129705Y-11024174D01*
X11129705Y-11024174D02*
X11129705Y-11071793D01*
X11129705Y-11071793D02*
X11120182Y-11109889D01*
X11120182Y-11109889D02*
X11110658Y-11128936D01*
X11110658Y-11128936D02*
X11101134Y-11138460D01*
X11101134Y-11138460D02*
X11082086Y-11147984D01*
X11082086Y-11147984D02*
X11063039Y-11147984D01*
X11063039Y-11147984D02*
X11043991Y-11138460D01*
X11043991Y-11138460D02*
X11034467Y-11128936D01*
X11034467Y-11128936D02*
X11024944Y-11109889D01*
X11024944Y-11109889D02*
X11015420Y-11071793D01*
X11015420Y-11071793D02*
X11015420Y-11024174D01*
X11015420Y-11024174D02*
X11024944Y-10986079D01*
X11024944Y-10986079D02*
X11034467Y-10967031D01*
X11034467Y-10967031D02*
X11043991Y-10957508D01*
X11043991Y-10957508D02*
X11063039Y-10947984D01*
X11215420Y-11147984D02*
X11215420Y-11014650D01*
X11215420Y-11033698D02*
X11224943Y-11024174D01*
X11224943Y-11024174D02*
X11243991Y-11014650D01*
X11243991Y-11014650D02*
X11272563Y-11014650D01*
X11272563Y-11014650D02*
X11291610Y-11024174D01*
X11291610Y-11024174D02*
X11301134Y-11043222D01*
X11301134Y-11043222D02*
X11301134Y-11147984D01*
X11301134Y-11043222D02*
X11310658Y-11024174D01*
X11310658Y-11024174D02*
X11329705Y-11014650D01*
X11329705Y-11014650D02*
X11358277Y-11014650D01*
X11358277Y-11014650D02*
X11377324Y-11024174D01*
X11377324Y-11024174D02*
X11386848Y-11043222D01*
X11386848Y-11043222D02*
X11386848Y-11147984D01*
X11482086Y-11147984D02*
X11482086Y-11014650D01*
X11482086Y-11033698D02*
X11491610Y-11024174D01*
X11491610Y-11024174D02*
X11510658Y-11014650D01*
X11510658Y-11014650D02*
X11539229Y-11014650D01*
X11539229Y-11014650D02*
X11558277Y-11024174D01*
X11558277Y-11024174D02*
X11567801Y-11043222D01*
X11567801Y-11043222D02*
X11567801Y-11147984D01*
X11567801Y-11043222D02*
X11577324Y-11024174D01*
X11577324Y-11024174D02*
X11596372Y-11014650D01*
X11596372Y-11014650D02*
X11624943Y-11014650D01*
X11624943Y-11014650D02*
X11643991Y-11024174D01*
X11643991Y-11024174D02*
X11653515Y-11043222D01*
X11653515Y-11043222D02*
X11653515Y-11147984D01*
X12043991Y-10938460D02*
X11872563Y-11195603D01*
X12301134Y-10947984D02*
X12320182Y-10947984D01*
X12320182Y-10947984D02*
X12339229Y-10957508D01*
X12339229Y-10957508D02*
X12348753Y-10967031D01*
X12348753Y-10967031D02*
X12358277Y-10986079D01*
X12358277Y-10986079D02*
X12367801Y-11024174D01*
X12367801Y-11024174D02*
X12367801Y-11071793D01*
X12367801Y-11071793D02*
X12358277Y-11109889D01*
X12358277Y-11109889D02*
X12348753Y-11128936D01*
X12348753Y-11128936D02*
X12339229Y-11138460D01*
X12339229Y-11138460D02*
X12320182Y-11147984D01*
X12320182Y-11147984D02*
X12301134Y-11147984D01*
X12301134Y-11147984D02*
X12282086Y-11138460D01*
X12282086Y-11138460D02*
X12272563Y-11128936D01*
X12272563Y-11128936D02*
X12263039Y-11109889D01*
X12263039Y-11109889D02*
X12253515Y-11071793D01*
X12253515Y-11071793D02*
X12253515Y-11024174D01*
X12253515Y-11024174D02*
X12263039Y-10986079D01*
X12263039Y-10986079D02*
X12272563Y-10967031D01*
X12272563Y-10967031D02*
X12282086Y-10957508D01*
X12282086Y-10957508D02*
X12301134Y-10947984D01*
X12453515Y-11128936D02*
X12463039Y-11138460D01*
X12463039Y-11138460D02*
X12453515Y-11147984D01*
X12453515Y-11147984D02*
X12443991Y-11138460D01*
X12443991Y-11138460D02*
X12453515Y-11128936D01*
X12453515Y-11128936D02*
X12453515Y-11147984D01*
X12586848Y-10947984D02*
X12605896Y-10947984D01*
X12605896Y-10947984D02*
X12624944Y-10957508D01*
X12624944Y-10957508D02*
X12634467Y-10967031D01*
X12634467Y-10967031D02*
X12643991Y-10986079D01*
X12643991Y-10986079D02*
X12653515Y-11024174D01*
X12653515Y-11024174D02*
X12653515Y-11071793D01*
X12653515Y-11071793D02*
X12643991Y-11109889D01*
X12643991Y-11109889D02*
X12634467Y-11128936D01*
X12634467Y-11128936D02*
X12624944Y-11138460D01*
X12624944Y-11138460D02*
X12605896Y-11147984D01*
X12605896Y-11147984D02*
X12586848Y-11147984D01*
X12586848Y-11147984D02*
X12567801Y-11138460D01*
X12567801Y-11138460D02*
X12558277Y-11128936D01*
X12558277Y-11128936D02*
X12548753Y-11109889D01*
X12548753Y-11109889D02*
X12539229Y-11071793D01*
X12539229Y-11071793D02*
X12539229Y-11024174D01*
X12539229Y-11024174D02*
X12548753Y-10986079D01*
X12548753Y-10986079D02*
X12558277Y-10967031D01*
X12558277Y-10967031D02*
X12567801Y-10957508D01*
X12567801Y-10957508D02*
X12586848Y-10947984D01*
X12720182Y-10947984D02*
X12843991Y-10947984D01*
X12843991Y-10947984D02*
X12777325Y-11024174D01*
X12777325Y-11024174D02*
X12805896Y-11024174D01*
X12805896Y-11024174D02*
X12824944Y-11033698D01*
X12824944Y-11033698D02*
X12834467Y-11043222D01*
X12834467Y-11043222D02*
X12843991Y-11062270D01*
X12843991Y-11062270D02*
X12843991Y-11109889D01*
X12843991Y-11109889D02*
X12834467Y-11128936D01*
X12834467Y-11128936D02*
X12824944Y-11138460D01*
X12824944Y-11138460D02*
X12805896Y-11147984D01*
X12805896Y-11147984D02*
X12748753Y-11147984D01*
X12748753Y-11147984D02*
X12729706Y-11138460D01*
X12729706Y-11138460D02*
X12720182Y-11128936D01*
X12939229Y-11147984D02*
X12977325Y-11147984D01*
X12977325Y-11147984D02*
X12996372Y-11138460D01*
X12996372Y-11138460D02*
X13005896Y-11128936D01*
X13005896Y-11128936D02*
X13024944Y-11100365D01*
X13024944Y-11100365D02*
X13034467Y-11062270D01*
X13034467Y-11062270D02*
X13034467Y-10986079D01*
X13034467Y-10986079D02*
X13024944Y-10967031D01*
X13024944Y-10967031D02*
X13015420Y-10957508D01*
X13015420Y-10957508D02*
X12996372Y-10947984D01*
X12996372Y-10947984D02*
X12958277Y-10947984D01*
X12958277Y-10947984D02*
X12939229Y-10957508D01*
X12939229Y-10957508D02*
X12929706Y-10967031D01*
X12929706Y-10967031D02*
X12920182Y-10986079D01*
X12920182Y-10986079D02*
X12920182Y-11033698D01*
X12920182Y-11033698D02*
X12929706Y-11052746D01*
X12929706Y-11052746D02*
X12939229Y-11062270D01*
X12939229Y-11062270D02*
X12958277Y-11071793D01*
X12958277Y-11071793D02*
X12996372Y-11071793D01*
X12996372Y-11071793D02*
X13015420Y-11062270D01*
X13015420Y-11062270D02*
X13024944Y-11052746D01*
X13024944Y-11052746D02*
X13034467Y-11033698D01*
X13205896Y-11014650D02*
X13205896Y-11147984D01*
X13158277Y-10938460D02*
X13110658Y-11081317D01*
X13110658Y-11081317D02*
X13234467Y-11081317D01*
X13301134Y-10947984D02*
X13301134Y-10986079D01*
X13377325Y-10947984D02*
X13377325Y-10986079D01*
X13672563Y-11224174D02*
X13663039Y-11214650D01*
X13663039Y-11214650D02*
X13643991Y-11186079D01*
X13643991Y-11186079D02*
X13634468Y-11167031D01*
X13634468Y-11167031D02*
X13624944Y-11138460D01*
X13624944Y-11138460D02*
X13615420Y-11090841D01*
X13615420Y-11090841D02*
X13615420Y-11052746D01*
X13615420Y-11052746D02*
X13624944Y-11005127D01*
X13624944Y-11005127D02*
X13634468Y-10976555D01*
X13634468Y-10976555D02*
X13643991Y-10957508D01*
X13643991Y-10957508D02*
X13663039Y-10928936D01*
X13663039Y-10928936D02*
X13672563Y-10919412D01*
X13834468Y-10947984D02*
X13796372Y-10947984D01*
X13796372Y-10947984D02*
X13777325Y-10957508D01*
X13777325Y-10957508D02*
X13767801Y-10967031D01*
X13767801Y-10967031D02*
X13748753Y-10995603D01*
X13748753Y-10995603D02*
X13739229Y-11033698D01*
X13739229Y-11033698D02*
X13739229Y-11109889D01*
X13739229Y-11109889D02*
X13748753Y-11128936D01*
X13748753Y-11128936D02*
X13758277Y-11138460D01*
X13758277Y-11138460D02*
X13777325Y-11147984D01*
X13777325Y-11147984D02*
X13815420Y-11147984D01*
X13815420Y-11147984D02*
X13834468Y-11138460D01*
X13834468Y-11138460D02*
X13843991Y-11128936D01*
X13843991Y-11128936D02*
X13853515Y-11109889D01*
X13853515Y-11109889D02*
X13853515Y-11062270D01*
X13853515Y-11062270D02*
X13843991Y-11043222D01*
X13843991Y-11043222D02*
X13834468Y-11033698D01*
X13834468Y-11033698D02*
X13815420Y-11024174D01*
X13815420Y-11024174D02*
X13777325Y-11024174D01*
X13777325Y-11024174D02*
X13758277Y-11033698D01*
X13758277Y-11033698D02*
X13748753Y-11043222D01*
X13748753Y-11043222D02*
X13739229Y-11062270D01*
X14024944Y-11014650D02*
X14024944Y-11147984D01*
X13977325Y-10938460D02*
X13929706Y-11081317D01*
X13929706Y-11081317D02*
X14053515Y-11081317D01*
X14282087Y-11147984D02*
X14282087Y-10947984D01*
X14367801Y-11147984D02*
X14367801Y-11043222D01*
X14367801Y-11043222D02*
X14358277Y-11024174D01*
X14358277Y-11024174D02*
X14339230Y-11014650D01*
X14339230Y-11014650D02*
X14310658Y-11014650D01*
X14310658Y-11014650D02*
X14291610Y-11024174D01*
X14291610Y-11024174D02*
X14282087Y-11033698D01*
X14491610Y-11147984D02*
X14472563Y-11138460D01*
X14472563Y-11138460D02*
X14463039Y-11128936D01*
X14463039Y-11128936D02*
X14453515Y-11109889D01*
X14453515Y-11109889D02*
X14453515Y-11052746D01*
X14453515Y-11052746D02*
X14463039Y-11033698D01*
X14463039Y-11033698D02*
X14472563Y-11024174D01*
X14472563Y-11024174D02*
X14491610Y-11014650D01*
X14491610Y-11014650D02*
X14520182Y-11014650D01*
X14520182Y-11014650D02*
X14539230Y-11024174D01*
X14539230Y-11024174D02*
X14548753Y-11033698D01*
X14548753Y-11033698D02*
X14558277Y-11052746D01*
X14558277Y-11052746D02*
X14558277Y-11109889D01*
X14558277Y-11109889D02*
X14548753Y-11128936D01*
X14548753Y-11128936D02*
X14539230Y-11138460D01*
X14539230Y-11138460D02*
X14520182Y-11147984D01*
X14520182Y-11147984D02*
X14491610Y-11147984D01*
X14672563Y-11147984D02*
X14653515Y-11138460D01*
X14653515Y-11138460D02*
X14643991Y-11119412D01*
X14643991Y-11119412D02*
X14643991Y-10947984D01*
X14824944Y-11138460D02*
X14805896Y-11147984D01*
X14805896Y-11147984D02*
X14767801Y-11147984D01*
X14767801Y-11147984D02*
X14748753Y-11138460D01*
X14748753Y-11138460D02*
X14739230Y-11119412D01*
X14739230Y-11119412D02*
X14739230Y-11043222D01*
X14739230Y-11043222D02*
X14748753Y-11024174D01*
X14748753Y-11024174D02*
X14767801Y-11014650D01*
X14767801Y-11014650D02*
X14805896Y-11014650D01*
X14805896Y-11014650D02*
X14824944Y-11024174D01*
X14824944Y-11024174D02*
X14834468Y-11043222D01*
X14834468Y-11043222D02*
X14834468Y-11062270D01*
X14834468Y-11062270D02*
X14739230Y-11081317D01*
X14910658Y-11138460D02*
X14929706Y-11147984D01*
X14929706Y-11147984D02*
X14967801Y-11147984D01*
X14967801Y-11147984D02*
X14986849Y-11138460D01*
X14986849Y-11138460D02*
X14996372Y-11119412D01*
X14996372Y-11119412D02*
X14996372Y-11109889D01*
X14996372Y-11109889D02*
X14986849Y-11090841D01*
X14986849Y-11090841D02*
X14967801Y-11081317D01*
X14967801Y-11081317D02*
X14939230Y-11081317D01*
X14939230Y-11081317D02*
X14920182Y-11071793D01*
X14920182Y-11071793D02*
X14910658Y-11052746D01*
X14910658Y-11052746D02*
X14910658Y-11043222D01*
X14910658Y-11043222D02*
X14920182Y-11024174D01*
X14920182Y-11024174D02*
X14939230Y-11014650D01*
X14939230Y-11014650D02*
X14967801Y-11014650D01*
X14967801Y-11014650D02*
X14986849Y-11024174D01*
X15063039Y-11224174D02*
X15072563Y-11214650D01*
X15072563Y-11214650D02*
X15091611Y-11186079D01*
X15091611Y-11186079D02*
X15101134Y-11167031D01*
X15101134Y-11167031D02*
X15110658Y-11138460D01*
X15110658Y-11138460D02*
X15120182Y-11090841D01*
X15120182Y-11090841D02*
X15120182Y-11052746D01*
X15120182Y-11052746D02*
X15110658Y-11005127D01*
X15110658Y-11005127D02*
X15101134Y-10976555D01*
X15101134Y-10976555D02*
X15091611Y-10957508D01*
X15091611Y-10957508D02*
X15072563Y-10928936D01*
X15072563Y-10928936D02*
X15063039Y-10919412D01*
D13*
X10027500Y-11250500D02*
X10027500Y-11390500D01*
X9957500Y-11320500D02*
X10097500Y-11320500D01*
D11*
X10463039Y-11411984D02*
X10348753Y-11411984D01*
X10405896Y-11411984D02*
X10405896Y-11211984D01*
X10405896Y-11211984D02*
X10386848Y-11240555D01*
X10386848Y-11240555D02*
X10367801Y-11259603D01*
X10367801Y-11259603D02*
X10348753Y-11269127D01*
X10548753Y-11392936D02*
X10558277Y-11402460D01*
X10558277Y-11402460D02*
X10548753Y-11411984D01*
X10548753Y-11411984D02*
X10539229Y-11402460D01*
X10539229Y-11402460D02*
X10548753Y-11392936D01*
X10548753Y-11392936D02*
X10548753Y-11411984D01*
X10729705Y-11278650D02*
X10729705Y-11411984D01*
X10682086Y-11202460D02*
X10634467Y-11345317D01*
X10634467Y-11345317D02*
X10758277Y-11345317D01*
X10872563Y-11211984D02*
X10891610Y-11211984D01*
X10891610Y-11211984D02*
X10910658Y-11221508D01*
X10910658Y-11221508D02*
X10920182Y-11231031D01*
X10920182Y-11231031D02*
X10929705Y-11250079D01*
X10929705Y-11250079D02*
X10939229Y-11288174D01*
X10939229Y-11288174D02*
X10939229Y-11335793D01*
X10939229Y-11335793D02*
X10929705Y-11373888D01*
X10929705Y-11373888D02*
X10920182Y-11392936D01*
X10920182Y-11392936D02*
X10910658Y-11402460D01*
X10910658Y-11402460D02*
X10891610Y-11411984D01*
X10891610Y-11411984D02*
X10872563Y-11411984D01*
X10872563Y-11411984D02*
X10853515Y-11402460D01*
X10853515Y-11402460D02*
X10843991Y-11392936D01*
X10843991Y-11392936D02*
X10834467Y-11373888D01*
X10834467Y-11373888D02*
X10824944Y-11335793D01*
X10824944Y-11335793D02*
X10824944Y-11288174D01*
X10824944Y-11288174D02*
X10834467Y-11250079D01*
X10834467Y-11250079D02*
X10843991Y-11231031D01*
X10843991Y-11231031D02*
X10853515Y-11221508D01*
X10853515Y-11221508D02*
X10872563Y-11211984D01*
X11063039Y-11211984D02*
X11082086Y-11211984D01*
X11082086Y-11211984D02*
X11101134Y-11221508D01*
X11101134Y-11221508D02*
X11110658Y-11231031D01*
X11110658Y-11231031D02*
X11120182Y-11250079D01*
X11120182Y-11250079D02*
X11129705Y-11288174D01*
X11129705Y-11288174D02*
X11129705Y-11335793D01*
X11129705Y-11335793D02*
X11120182Y-11373888D01*
X11120182Y-11373888D02*
X11110658Y-11392936D01*
X11110658Y-11392936D02*
X11101134Y-11402460D01*
X11101134Y-11402460D02*
X11082086Y-11411984D01*
X11082086Y-11411984D02*
X11063039Y-11411984D01*
X11063039Y-11411984D02*
X11043991Y-11402460D01*
X11043991Y-11402460D02*
X11034467Y-11392936D01*
X11034467Y-11392936D02*
X11024944Y-11373888D01*
X11024944Y-11373888D02*
X11015420Y-11335793D01*
X11015420Y-11335793D02*
X11015420Y-11288174D01*
X11015420Y-11288174D02*
X11024944Y-11250079D01*
X11024944Y-11250079D02*
X11034467Y-11231031D01*
X11034467Y-11231031D02*
X11043991Y-11221508D01*
X11043991Y-11221508D02*
X11063039Y-11211984D01*
X11215420Y-11411984D02*
X11215420Y-11278650D01*
X11215420Y-11297698D02*
X11224943Y-11288174D01*
X11224943Y-11288174D02*
X11243991Y-11278650D01*
X11243991Y-11278650D02*
X11272563Y-11278650D01*
X11272563Y-11278650D02*
X11291610Y-11288174D01*
X11291610Y-11288174D02*
X11301134Y-11307222D01*
X11301134Y-11307222D02*
X11301134Y-11411984D01*
X11301134Y-11307222D02*
X11310658Y-11288174D01*
X11310658Y-11288174D02*
X11329705Y-11278650D01*
X11329705Y-11278650D02*
X11358277Y-11278650D01*
X11358277Y-11278650D02*
X11377324Y-11288174D01*
X11377324Y-11288174D02*
X11386848Y-11307222D01*
X11386848Y-11307222D02*
X11386848Y-11411984D01*
X11482086Y-11411984D02*
X11482086Y-11278650D01*
X11482086Y-11297698D02*
X11491610Y-11288174D01*
X11491610Y-11288174D02*
X11510658Y-11278650D01*
X11510658Y-11278650D02*
X11539229Y-11278650D01*
X11539229Y-11278650D02*
X11558277Y-11288174D01*
X11558277Y-11288174D02*
X11567801Y-11307222D01*
X11567801Y-11307222D02*
X11567801Y-11411984D01*
X11567801Y-11307222D02*
X11577324Y-11288174D01*
X11577324Y-11288174D02*
X11596372Y-11278650D01*
X11596372Y-11278650D02*
X11624943Y-11278650D01*
X11624943Y-11278650D02*
X11643991Y-11288174D01*
X11643991Y-11288174D02*
X11653515Y-11307222D01*
X11653515Y-11307222D02*
X11653515Y-11411984D01*
X12043991Y-11202460D02*
X11872563Y-11459603D01*
X12301134Y-11211984D02*
X12320182Y-11211984D01*
X12320182Y-11211984D02*
X12339229Y-11221508D01*
X12339229Y-11221508D02*
X12348753Y-11231031D01*
X12348753Y-11231031D02*
X12358277Y-11250079D01*
X12358277Y-11250079D02*
X12367801Y-11288174D01*
X12367801Y-11288174D02*
X12367801Y-11335793D01*
X12367801Y-11335793D02*
X12358277Y-11373888D01*
X12358277Y-11373888D02*
X12348753Y-11392936D01*
X12348753Y-11392936D02*
X12339229Y-11402460D01*
X12339229Y-11402460D02*
X12320182Y-11411984D01*
X12320182Y-11411984D02*
X12301134Y-11411984D01*
X12301134Y-11411984D02*
X12282086Y-11402460D01*
X12282086Y-11402460D02*
X12272563Y-11392936D01*
X12272563Y-11392936D02*
X12263039Y-11373888D01*
X12263039Y-11373888D02*
X12253515Y-11335793D01*
X12253515Y-11335793D02*
X12253515Y-11288174D01*
X12253515Y-11288174D02*
X12263039Y-11250079D01*
X12263039Y-11250079D02*
X12272563Y-11231031D01*
X12272563Y-11231031D02*
X12282086Y-11221508D01*
X12282086Y-11221508D02*
X12301134Y-11211984D01*
X12453515Y-11392936D02*
X12463039Y-11402460D01*
X12463039Y-11402460D02*
X12453515Y-11411984D01*
X12453515Y-11411984D02*
X12443991Y-11402460D01*
X12443991Y-11402460D02*
X12453515Y-11392936D01*
X12453515Y-11392936D02*
X12453515Y-11411984D01*
X12586848Y-11211984D02*
X12605896Y-11211984D01*
X12605896Y-11211984D02*
X12624944Y-11221508D01*
X12624944Y-11221508D02*
X12634467Y-11231031D01*
X12634467Y-11231031D02*
X12643991Y-11250079D01*
X12643991Y-11250079D02*
X12653515Y-11288174D01*
X12653515Y-11288174D02*
X12653515Y-11335793D01*
X12653515Y-11335793D02*
X12643991Y-11373888D01*
X12643991Y-11373888D02*
X12634467Y-11392936D01*
X12634467Y-11392936D02*
X12624944Y-11402460D01*
X12624944Y-11402460D02*
X12605896Y-11411984D01*
X12605896Y-11411984D02*
X12586848Y-11411984D01*
X12586848Y-11411984D02*
X12567801Y-11402460D01*
X12567801Y-11402460D02*
X12558277Y-11392936D01*
X12558277Y-11392936D02*
X12548753Y-11373888D01*
X12548753Y-11373888D02*
X12539229Y-11335793D01*
X12539229Y-11335793D02*
X12539229Y-11288174D01*
X12539229Y-11288174D02*
X12548753Y-11250079D01*
X12548753Y-11250079D02*
X12558277Y-11231031D01*
X12558277Y-11231031D02*
X12567801Y-11221508D01*
X12567801Y-11221508D02*
X12586848Y-11211984D01*
X12834467Y-11211984D02*
X12739229Y-11211984D01*
X12739229Y-11211984D02*
X12729706Y-11307222D01*
X12729706Y-11307222D02*
X12739229Y-11297698D01*
X12739229Y-11297698D02*
X12758277Y-11288174D01*
X12758277Y-11288174D02*
X12805896Y-11288174D01*
X12805896Y-11288174D02*
X12824944Y-11297698D01*
X12824944Y-11297698D02*
X12834467Y-11307222D01*
X12834467Y-11307222D02*
X12843991Y-11326269D01*
X12843991Y-11326269D02*
X12843991Y-11373888D01*
X12843991Y-11373888D02*
X12834467Y-11392936D01*
X12834467Y-11392936D02*
X12824944Y-11402460D01*
X12824944Y-11402460D02*
X12805896Y-11411984D01*
X12805896Y-11411984D02*
X12758277Y-11411984D01*
X12758277Y-11411984D02*
X12739229Y-11402460D01*
X12739229Y-11402460D02*
X12729706Y-11392936D01*
X13024944Y-11211984D02*
X12929706Y-11211984D01*
X12929706Y-11211984D02*
X12920182Y-11307222D01*
X12920182Y-11307222D02*
X12929706Y-11297698D01*
X12929706Y-11297698D02*
X12948753Y-11288174D01*
X12948753Y-11288174D02*
X12996372Y-11288174D01*
X12996372Y-11288174D02*
X13015420Y-11297698D01*
X13015420Y-11297698D02*
X13024944Y-11307222D01*
X13024944Y-11307222D02*
X13034467Y-11326269D01*
X13034467Y-11326269D02*
X13034467Y-11373888D01*
X13034467Y-11373888D02*
X13024944Y-11392936D01*
X13024944Y-11392936D02*
X13015420Y-11402460D01*
X13015420Y-11402460D02*
X12996372Y-11411984D01*
X12996372Y-11411984D02*
X12948753Y-11411984D01*
X12948753Y-11411984D02*
X12929706Y-11402460D01*
X12929706Y-11402460D02*
X12920182Y-11392936D01*
X13224944Y-11411984D02*
X13110658Y-11411984D01*
X13167801Y-11411984D02*
X13167801Y-11211984D01*
X13167801Y-11211984D02*
X13148753Y-11240555D01*
X13148753Y-11240555D02*
X13129706Y-11259603D01*
X13129706Y-11259603D02*
X13110658Y-11269127D01*
X13301134Y-11211984D02*
X13301134Y-11250079D01*
X13377325Y-11211984D02*
X13377325Y-11250079D01*
X13672563Y-11488174D02*
X13663039Y-11478650D01*
X13663039Y-11478650D02*
X13643991Y-11450079D01*
X13643991Y-11450079D02*
X13634468Y-11431031D01*
X13634468Y-11431031D02*
X13624944Y-11402460D01*
X13624944Y-11402460D02*
X13615420Y-11354841D01*
X13615420Y-11354841D02*
X13615420Y-11316746D01*
X13615420Y-11316746D02*
X13624944Y-11269127D01*
X13624944Y-11269127D02*
X13634468Y-11240555D01*
X13634468Y-11240555D02*
X13643991Y-11221508D01*
X13643991Y-11221508D02*
X13663039Y-11192936D01*
X13663039Y-11192936D02*
X13672563Y-11183412D01*
X13777325Y-11297698D02*
X13758277Y-11288174D01*
X13758277Y-11288174D02*
X13748753Y-11278650D01*
X13748753Y-11278650D02*
X13739229Y-11259603D01*
X13739229Y-11259603D02*
X13739229Y-11250079D01*
X13739229Y-11250079D02*
X13748753Y-11231031D01*
X13748753Y-11231031D02*
X13758277Y-11221508D01*
X13758277Y-11221508D02*
X13777325Y-11211984D01*
X13777325Y-11211984D02*
X13815420Y-11211984D01*
X13815420Y-11211984D02*
X13834468Y-11221508D01*
X13834468Y-11221508D02*
X13843991Y-11231031D01*
X13843991Y-11231031D02*
X13853515Y-11250079D01*
X13853515Y-11250079D02*
X13853515Y-11259603D01*
X13853515Y-11259603D02*
X13843991Y-11278650D01*
X13843991Y-11278650D02*
X13834468Y-11288174D01*
X13834468Y-11288174D02*
X13815420Y-11297698D01*
X13815420Y-11297698D02*
X13777325Y-11297698D01*
X13777325Y-11297698D02*
X13758277Y-11307222D01*
X13758277Y-11307222D02*
X13748753Y-11316746D01*
X13748753Y-11316746D02*
X13739229Y-11335793D01*
X13739229Y-11335793D02*
X13739229Y-11373888D01*
X13739229Y-11373888D02*
X13748753Y-11392936D01*
X13748753Y-11392936D02*
X13758277Y-11402460D01*
X13758277Y-11402460D02*
X13777325Y-11411984D01*
X13777325Y-11411984D02*
X13815420Y-11411984D01*
X13815420Y-11411984D02*
X13834468Y-11402460D01*
X13834468Y-11402460D02*
X13843991Y-11392936D01*
X13843991Y-11392936D02*
X13853515Y-11373888D01*
X13853515Y-11373888D02*
X13853515Y-11335793D01*
X13853515Y-11335793D02*
X13843991Y-11316746D01*
X13843991Y-11316746D02*
X13834468Y-11307222D01*
X13834468Y-11307222D02*
X13815420Y-11297698D01*
X14091610Y-11411984D02*
X14091610Y-11211984D01*
X14177325Y-11411984D02*
X14177325Y-11307222D01*
X14177325Y-11307222D02*
X14167801Y-11288174D01*
X14167801Y-11288174D02*
X14148753Y-11278650D01*
X14148753Y-11278650D02*
X14120182Y-11278650D01*
X14120182Y-11278650D02*
X14101134Y-11288174D01*
X14101134Y-11288174D02*
X14091610Y-11297698D01*
X14301134Y-11411984D02*
X14282087Y-11402460D01*
X14282087Y-11402460D02*
X14272563Y-11392936D01*
X14272563Y-11392936D02*
X14263039Y-11373888D01*
X14263039Y-11373888D02*
X14263039Y-11316746D01*
X14263039Y-11316746D02*
X14272563Y-11297698D01*
X14272563Y-11297698D02*
X14282087Y-11288174D01*
X14282087Y-11288174D02*
X14301134Y-11278650D01*
X14301134Y-11278650D02*
X14329706Y-11278650D01*
X14329706Y-11278650D02*
X14348753Y-11288174D01*
X14348753Y-11288174D02*
X14358277Y-11297698D01*
X14358277Y-11297698D02*
X14367801Y-11316746D01*
X14367801Y-11316746D02*
X14367801Y-11373888D01*
X14367801Y-11373888D02*
X14358277Y-11392936D01*
X14358277Y-11392936D02*
X14348753Y-11402460D01*
X14348753Y-11402460D02*
X14329706Y-11411984D01*
X14329706Y-11411984D02*
X14301134Y-11411984D01*
X14482087Y-11411984D02*
X14463039Y-11402460D01*
X14463039Y-11402460D02*
X14453515Y-11383412D01*
X14453515Y-11383412D02*
X14453515Y-11211984D01*
X14634468Y-11402460D02*
X14615420Y-11411984D01*
X14615420Y-11411984D02*
X14577325Y-11411984D01*
X14577325Y-11411984D02*
X14558277Y-11402460D01*
X14558277Y-11402460D02*
X14548753Y-11383412D01*
X14548753Y-11383412D02*
X14548753Y-11307222D01*
X14548753Y-11307222D02*
X14558277Y-11288174D01*
X14558277Y-11288174D02*
X14577325Y-11278650D01*
X14577325Y-11278650D02*
X14615420Y-11278650D01*
X14615420Y-11278650D02*
X14634468Y-11288174D01*
X14634468Y-11288174D02*
X14643991Y-11307222D01*
X14643991Y-11307222D02*
X14643991Y-11326269D01*
X14643991Y-11326269D02*
X14548753Y-11345317D01*
X14720182Y-11402460D02*
X14739230Y-11411984D01*
X14739230Y-11411984D02*
X14777325Y-11411984D01*
X14777325Y-11411984D02*
X14796372Y-11402460D01*
X14796372Y-11402460D02*
X14805896Y-11383412D01*
X14805896Y-11383412D02*
X14805896Y-11373888D01*
X14805896Y-11373888D02*
X14796372Y-11354841D01*
X14796372Y-11354841D02*
X14777325Y-11345317D01*
X14777325Y-11345317D02*
X14748753Y-11345317D01*
X14748753Y-11345317D02*
X14729706Y-11335793D01*
X14729706Y-11335793D02*
X14720182Y-11316746D01*
X14720182Y-11316746D02*
X14720182Y-11307222D01*
X14720182Y-11307222D02*
X14729706Y-11288174D01*
X14729706Y-11288174D02*
X14748753Y-11278650D01*
X14748753Y-11278650D02*
X14777325Y-11278650D01*
X14777325Y-11278650D02*
X14796372Y-11288174D01*
X14872563Y-11488174D02*
X14882087Y-11478650D01*
X14882087Y-11478650D02*
X14901134Y-11450079D01*
X14901134Y-11450079D02*
X14910658Y-11431031D01*
X14910658Y-11431031D02*
X14920182Y-11402460D01*
X14920182Y-11402460D02*
X14929706Y-11354841D01*
X14929706Y-11354841D02*
X14929706Y-11316746D01*
X14929706Y-11316746D02*
X14920182Y-11269127D01*
X14920182Y-11269127D02*
X14910658Y-11240555D01*
X14910658Y-11240555D02*
X14901134Y-11221508D01*
X14901134Y-11221508D02*
X14882087Y-11192936D01*
X14882087Y-11192936D02*
X14872563Y-11183412D01*
X10068211Y-11655211D02*
X10068211Y-11513789D01*
X9926789Y-11513789D01*
X9926789Y-11655211D01*
X10068211Y-11655211D01*
X10339229Y-11475984D02*
X10463039Y-11475984D01*
X10463039Y-11475984D02*
X10396372Y-11552174D01*
X10396372Y-11552174D02*
X10424944Y-11552174D01*
X10424944Y-11552174D02*
X10443991Y-11561698D01*
X10443991Y-11561698D02*
X10453515Y-11571222D01*
X10453515Y-11571222D02*
X10463039Y-11590269D01*
X10463039Y-11590269D02*
X10463039Y-11637888D01*
X10463039Y-11637888D02*
X10453515Y-11656936D01*
X10453515Y-11656936D02*
X10443991Y-11666460D01*
X10443991Y-11666460D02*
X10424944Y-11675984D01*
X10424944Y-11675984D02*
X10367801Y-11675984D01*
X10367801Y-11675984D02*
X10348753Y-11666460D01*
X10348753Y-11666460D02*
X10339229Y-11656936D01*
X10548753Y-11656936D02*
X10558277Y-11666460D01*
X10558277Y-11666460D02*
X10548753Y-11675984D01*
X10548753Y-11675984D02*
X10539229Y-11666460D01*
X10539229Y-11666460D02*
X10548753Y-11656936D01*
X10548753Y-11656936D02*
X10548753Y-11675984D01*
X10634467Y-11495031D02*
X10643991Y-11485508D01*
X10643991Y-11485508D02*
X10663039Y-11475984D01*
X10663039Y-11475984D02*
X10710658Y-11475984D01*
X10710658Y-11475984D02*
X10729705Y-11485508D01*
X10729705Y-11485508D02*
X10739229Y-11495031D01*
X10739229Y-11495031D02*
X10748753Y-11514079D01*
X10748753Y-11514079D02*
X10748753Y-11533127D01*
X10748753Y-11533127D02*
X10739229Y-11561698D01*
X10739229Y-11561698D02*
X10624944Y-11675984D01*
X10624944Y-11675984D02*
X10748753Y-11675984D01*
X10872563Y-11475984D02*
X10891610Y-11475984D01*
X10891610Y-11475984D02*
X10910658Y-11485508D01*
X10910658Y-11485508D02*
X10920182Y-11495031D01*
X10920182Y-11495031D02*
X10929705Y-11514079D01*
X10929705Y-11514079D02*
X10939229Y-11552174D01*
X10939229Y-11552174D02*
X10939229Y-11599793D01*
X10939229Y-11599793D02*
X10929705Y-11637888D01*
X10929705Y-11637888D02*
X10920182Y-11656936D01*
X10920182Y-11656936D02*
X10910658Y-11666460D01*
X10910658Y-11666460D02*
X10891610Y-11675984D01*
X10891610Y-11675984D02*
X10872563Y-11675984D01*
X10872563Y-11675984D02*
X10853515Y-11666460D01*
X10853515Y-11666460D02*
X10843991Y-11656936D01*
X10843991Y-11656936D02*
X10834467Y-11637888D01*
X10834467Y-11637888D02*
X10824944Y-11599793D01*
X10824944Y-11599793D02*
X10824944Y-11552174D01*
X10824944Y-11552174D02*
X10834467Y-11514079D01*
X10834467Y-11514079D02*
X10843991Y-11495031D01*
X10843991Y-11495031D02*
X10853515Y-11485508D01*
X10853515Y-11485508D02*
X10872563Y-11475984D01*
X11063039Y-11475984D02*
X11082086Y-11475984D01*
X11082086Y-11475984D02*
X11101134Y-11485508D01*
X11101134Y-11485508D02*
X11110658Y-11495031D01*
X11110658Y-11495031D02*
X11120182Y-11514079D01*
X11120182Y-11514079D02*
X11129705Y-11552174D01*
X11129705Y-11552174D02*
X11129705Y-11599793D01*
X11129705Y-11599793D02*
X11120182Y-11637888D01*
X11120182Y-11637888D02*
X11110658Y-11656936D01*
X11110658Y-11656936D02*
X11101134Y-11666460D01*
X11101134Y-11666460D02*
X11082086Y-11675984D01*
X11082086Y-11675984D02*
X11063039Y-11675984D01*
X11063039Y-11675984D02*
X11043991Y-11666460D01*
X11043991Y-11666460D02*
X11034467Y-11656936D01*
X11034467Y-11656936D02*
X11024944Y-11637888D01*
X11024944Y-11637888D02*
X11015420Y-11599793D01*
X11015420Y-11599793D02*
X11015420Y-11552174D01*
X11015420Y-11552174D02*
X11024944Y-11514079D01*
X11024944Y-11514079D02*
X11034467Y-11495031D01*
X11034467Y-11495031D02*
X11043991Y-11485508D01*
X11043991Y-11485508D02*
X11063039Y-11475984D01*
X11215420Y-11675984D02*
X11215420Y-11542650D01*
X11215420Y-11561698D02*
X11224943Y-11552174D01*
X11224943Y-11552174D02*
X11243991Y-11542650D01*
X11243991Y-11542650D02*
X11272563Y-11542650D01*
X11272563Y-11542650D02*
X11291610Y-11552174D01*
X11291610Y-11552174D02*
X11301134Y-11571222D01*
X11301134Y-11571222D02*
X11301134Y-11675984D01*
X11301134Y-11571222D02*
X11310658Y-11552174D01*
X11310658Y-11552174D02*
X11329705Y-11542650D01*
X11329705Y-11542650D02*
X11358277Y-11542650D01*
X11358277Y-11542650D02*
X11377324Y-11552174D01*
X11377324Y-11552174D02*
X11386848Y-11571222D01*
X11386848Y-11571222D02*
X11386848Y-11675984D01*
X11482086Y-11675984D02*
X11482086Y-11542650D01*
X11482086Y-11561698D02*
X11491610Y-11552174D01*
X11491610Y-11552174D02*
X11510658Y-11542650D01*
X11510658Y-11542650D02*
X11539229Y-11542650D01*
X11539229Y-11542650D02*
X11558277Y-11552174D01*
X11558277Y-11552174D02*
X11567801Y-11571222D01*
X11567801Y-11571222D02*
X11567801Y-11675984D01*
X11567801Y-11571222D02*
X11577324Y-11552174D01*
X11577324Y-11552174D02*
X11596372Y-11542650D01*
X11596372Y-11542650D02*
X11624943Y-11542650D01*
X11624943Y-11542650D02*
X11643991Y-11552174D01*
X11643991Y-11552174D02*
X11653515Y-11571222D01*
X11653515Y-11571222D02*
X11653515Y-11675984D01*
X12043991Y-11466460D02*
X11872563Y-11723603D01*
X12301134Y-11475984D02*
X12320182Y-11475984D01*
X12320182Y-11475984D02*
X12339229Y-11485508D01*
X12339229Y-11485508D02*
X12348753Y-11495031D01*
X12348753Y-11495031D02*
X12358277Y-11514079D01*
X12358277Y-11514079D02*
X12367801Y-11552174D01*
X12367801Y-11552174D02*
X12367801Y-11599793D01*
X12367801Y-11599793D02*
X12358277Y-11637888D01*
X12358277Y-11637888D02*
X12348753Y-11656936D01*
X12348753Y-11656936D02*
X12339229Y-11666460D01*
X12339229Y-11666460D02*
X12320182Y-11675984D01*
X12320182Y-11675984D02*
X12301134Y-11675984D01*
X12301134Y-11675984D02*
X12282086Y-11666460D01*
X12282086Y-11666460D02*
X12272563Y-11656936D01*
X12272563Y-11656936D02*
X12263039Y-11637888D01*
X12263039Y-11637888D02*
X12253515Y-11599793D01*
X12253515Y-11599793D02*
X12253515Y-11552174D01*
X12253515Y-11552174D02*
X12263039Y-11514079D01*
X12263039Y-11514079D02*
X12272563Y-11495031D01*
X12272563Y-11495031D02*
X12282086Y-11485508D01*
X12282086Y-11485508D02*
X12301134Y-11475984D01*
X12453515Y-11656936D02*
X12463039Y-11666460D01*
X12463039Y-11666460D02*
X12453515Y-11675984D01*
X12453515Y-11675984D02*
X12443991Y-11666460D01*
X12443991Y-11666460D02*
X12453515Y-11656936D01*
X12453515Y-11656936D02*
X12453515Y-11675984D01*
X12653515Y-11675984D02*
X12539229Y-11675984D01*
X12596372Y-11675984D02*
X12596372Y-11475984D01*
X12596372Y-11475984D02*
X12577325Y-11504555D01*
X12577325Y-11504555D02*
X12558277Y-11523603D01*
X12558277Y-11523603D02*
X12539229Y-11533127D01*
X12729706Y-11495031D02*
X12739229Y-11485508D01*
X12739229Y-11485508D02*
X12758277Y-11475984D01*
X12758277Y-11475984D02*
X12805896Y-11475984D01*
X12805896Y-11475984D02*
X12824944Y-11485508D01*
X12824944Y-11485508D02*
X12834467Y-11495031D01*
X12834467Y-11495031D02*
X12843991Y-11514079D01*
X12843991Y-11514079D02*
X12843991Y-11533127D01*
X12843991Y-11533127D02*
X12834467Y-11561698D01*
X12834467Y-11561698D02*
X12720182Y-11675984D01*
X12720182Y-11675984D02*
X12843991Y-11675984D01*
X13015420Y-11475984D02*
X12977325Y-11475984D01*
X12977325Y-11475984D02*
X12958277Y-11485508D01*
X12958277Y-11485508D02*
X12948753Y-11495031D01*
X12948753Y-11495031D02*
X12929706Y-11523603D01*
X12929706Y-11523603D02*
X12920182Y-11561698D01*
X12920182Y-11561698D02*
X12920182Y-11637888D01*
X12920182Y-11637888D02*
X12929706Y-11656936D01*
X12929706Y-11656936D02*
X12939229Y-11666460D01*
X12939229Y-11666460D02*
X12958277Y-11675984D01*
X12958277Y-11675984D02*
X12996372Y-11675984D01*
X12996372Y-11675984D02*
X13015420Y-11666460D01*
X13015420Y-11666460D02*
X13024944Y-11656936D01*
X13024944Y-11656936D02*
X13034467Y-11637888D01*
X13034467Y-11637888D02*
X13034467Y-11590269D01*
X13034467Y-11590269D02*
X13024944Y-11571222D01*
X13024944Y-11571222D02*
X13015420Y-11561698D01*
X13015420Y-11561698D02*
X12996372Y-11552174D01*
X12996372Y-11552174D02*
X12958277Y-11552174D01*
X12958277Y-11552174D02*
X12939229Y-11561698D01*
X12939229Y-11561698D02*
X12929706Y-11571222D01*
X12929706Y-11571222D02*
X12920182Y-11590269D01*
X13158277Y-11475984D02*
X13177325Y-11475984D01*
X13177325Y-11475984D02*
X13196372Y-11485508D01*
X13196372Y-11485508D02*
X13205896Y-11495031D01*
X13205896Y-11495031D02*
X13215420Y-11514079D01*
X13215420Y-11514079D02*
X13224944Y-11552174D01*
X13224944Y-11552174D02*
X13224944Y-11599793D01*
X13224944Y-11599793D02*
X13215420Y-11637888D01*
X13215420Y-11637888D02*
X13205896Y-11656936D01*
X13205896Y-11656936D02*
X13196372Y-11666460D01*
X13196372Y-11666460D02*
X13177325Y-11675984D01*
X13177325Y-11675984D02*
X13158277Y-11675984D01*
X13158277Y-11675984D02*
X13139229Y-11666460D01*
X13139229Y-11666460D02*
X13129706Y-11656936D01*
X13129706Y-11656936D02*
X13120182Y-11637888D01*
X13120182Y-11637888D02*
X13110658Y-11599793D01*
X13110658Y-11599793D02*
X13110658Y-11552174D01*
X13110658Y-11552174D02*
X13120182Y-11514079D01*
X13120182Y-11514079D02*
X13129706Y-11495031D01*
X13129706Y-11495031D02*
X13139229Y-11485508D01*
X13139229Y-11485508D02*
X13158277Y-11475984D01*
X13301134Y-11475984D02*
X13301134Y-11514079D01*
X13377325Y-11475984D02*
X13377325Y-11514079D01*
X13672563Y-11752174D02*
X13663039Y-11742650D01*
X13663039Y-11742650D02*
X13643991Y-11714079D01*
X13643991Y-11714079D02*
X13634468Y-11695031D01*
X13634468Y-11695031D02*
X13624944Y-11666460D01*
X13624944Y-11666460D02*
X13615420Y-11618841D01*
X13615420Y-11618841D02*
X13615420Y-11580746D01*
X13615420Y-11580746D02*
X13624944Y-11533127D01*
X13624944Y-11533127D02*
X13634468Y-11504555D01*
X13634468Y-11504555D02*
X13643991Y-11485508D01*
X13643991Y-11485508D02*
X13663039Y-11456936D01*
X13663039Y-11456936D02*
X13672563Y-11447412D01*
X13834468Y-11542650D02*
X13834468Y-11675984D01*
X13786848Y-11466460D02*
X13739229Y-11609317D01*
X13739229Y-11609317D02*
X13863039Y-11609317D01*
X14091610Y-11675984D02*
X14091610Y-11475984D01*
X14177325Y-11675984D02*
X14177325Y-11571222D01*
X14177325Y-11571222D02*
X14167801Y-11552174D01*
X14167801Y-11552174D02*
X14148753Y-11542650D01*
X14148753Y-11542650D02*
X14120182Y-11542650D01*
X14120182Y-11542650D02*
X14101134Y-11552174D01*
X14101134Y-11552174D02*
X14091610Y-11561698D01*
X14301134Y-11675984D02*
X14282087Y-11666460D01*
X14282087Y-11666460D02*
X14272563Y-11656936D01*
X14272563Y-11656936D02*
X14263039Y-11637888D01*
X14263039Y-11637888D02*
X14263039Y-11580746D01*
X14263039Y-11580746D02*
X14272563Y-11561698D01*
X14272563Y-11561698D02*
X14282087Y-11552174D01*
X14282087Y-11552174D02*
X14301134Y-11542650D01*
X14301134Y-11542650D02*
X14329706Y-11542650D01*
X14329706Y-11542650D02*
X14348753Y-11552174D01*
X14348753Y-11552174D02*
X14358277Y-11561698D01*
X14358277Y-11561698D02*
X14367801Y-11580746D01*
X14367801Y-11580746D02*
X14367801Y-11637888D01*
X14367801Y-11637888D02*
X14358277Y-11656936D01*
X14358277Y-11656936D02*
X14348753Y-11666460D01*
X14348753Y-11666460D02*
X14329706Y-11675984D01*
X14329706Y-11675984D02*
X14301134Y-11675984D01*
X14482087Y-11675984D02*
X14463039Y-11666460D01*
X14463039Y-11666460D02*
X14453515Y-11647412D01*
X14453515Y-11647412D02*
X14453515Y-11475984D01*
X14634468Y-11666460D02*
X14615420Y-11675984D01*
X14615420Y-11675984D02*
X14577325Y-11675984D01*
X14577325Y-11675984D02*
X14558277Y-11666460D01*
X14558277Y-11666460D02*
X14548753Y-11647412D01*
X14548753Y-11647412D02*
X14548753Y-11571222D01*
X14548753Y-11571222D02*
X14558277Y-11552174D01*
X14558277Y-11552174D02*
X14577325Y-11542650D01*
X14577325Y-11542650D02*
X14615420Y-11542650D01*
X14615420Y-11542650D02*
X14634468Y-11552174D01*
X14634468Y-11552174D02*
X14643991Y-11571222D01*
X14643991Y-11571222D02*
X14643991Y-11590269D01*
X14643991Y-11590269D02*
X14548753Y-11609317D01*
X14720182Y-11666460D02*
X14739230Y-11675984D01*
X14739230Y-11675984D02*
X14777325Y-11675984D01*
X14777325Y-11675984D02*
X14796372Y-11666460D01*
X14796372Y-11666460D02*
X14805896Y-11647412D01*
X14805896Y-11647412D02*
X14805896Y-11637888D01*
X14805896Y-11637888D02*
X14796372Y-11618841D01*
X14796372Y-11618841D02*
X14777325Y-11609317D01*
X14777325Y-11609317D02*
X14748753Y-11609317D01*
X14748753Y-11609317D02*
X14729706Y-11599793D01*
X14729706Y-11599793D02*
X14720182Y-11580746D01*
X14720182Y-11580746D02*
X14720182Y-11571222D01*
X14720182Y-11571222D02*
X14729706Y-11552174D01*
X14729706Y-11552174D02*
X14748753Y-11542650D01*
X14748753Y-11542650D02*
X14777325Y-11542650D01*
X14777325Y-11542650D02*
X14796372Y-11552174D01*
X14872563Y-11752174D02*
X14882087Y-11742650D01*
X14882087Y-11742650D02*
X14901134Y-11714079D01*
X14901134Y-11714079D02*
X14910658Y-11695031D01*
X14910658Y-11695031D02*
X14920182Y-11666460D01*
X14920182Y-11666460D02*
X14929706Y-11618841D01*
X14929706Y-11618841D02*
X14929706Y-11580746D01*
X14929706Y-11580746D02*
X14920182Y-11533127D01*
X14920182Y-11533127D02*
X14910658Y-11504555D01*
X14910658Y-11504555D02*
X14901134Y-11485508D01*
X14901134Y-11485508D02*
X14882087Y-11456936D01*
X14882087Y-11456936D02*
X14872563Y-11447412D01*
M02*
